<svg xmlns="http://www.w3.org/2000/svg" xmlns:xlink="http://www.w3.org/1999/xlink" id="Layer_1" x="0px" y="0px" viewBox="0 0 720 720" style="enable-background:new 0 0 720 720;" xml:space="preserve">
<style type="text/css">
	.st0{fill:url(#SVGID_1_);}
	.st1{fill:url(#SVGID_2_);}
	.st2{fill:url(#SVGID_3_);}
	.st3{fill:url(#SVGID_4_);}
	.st4{fill:url(#SVGID_5_);}
	.st5{fill:url(#SVGID_6_);}
	.st6{fill:url(#SVGID_7_);}
	.st7{fill:#232323;}
	.st8{fill:#EEBA48;}
	.st9{fill:url(#SVGID_8_);}
	.st10{fill:url(#SVGID_9_);}
	.st11{fill:url(#SVGID_10_);}
	.st12{fill:url(#SVGID_11_);}
	.st13{fill:url(#SVGID_12_);}
	.st14{fill:url(#SVGID_13_);}
	.st15{fill:url(#SVGID_14_);}
	.st16{fill:url(#SVGID_15_);}
	.st17{fill:url(#SVGID_16_);}
	.st18{fill:url(#SVGID_17_);}
	.st19{fill:url(#SVGID_18_);}
	.st20{fill:url(#SVGID_19_);}
	.st21{fill:url(#SVGID_20_);}
	.st22{fill:url(#SVGID_21_);}
	.st23{fill:url(#SVGID_22_);}
	.st24{fill:url(#SVGID_23_);}
	.st25{fill:url(#SVGID_24_);}
	.st26{fill:url(#SVGID_25_);}
	.st27{fill:url(#SVGID_26_);}
	.st28{fill:url(#SVGID_27_);}
	.st29{fill:url(#SVGID_28_);}
	.st30{fill:url(#SVGID_29_);}
	.st31{fill:url(#SVGID_30_);}
	.st32{fill:url(#SVGID_31_);}
	.st33{fill:url(#SVGID_32_);}
	.st34{fill:url(#SVGID_33_);}
	.st35{fill:url(#SVGID_34_);}
	.st36{fill:url(#SVGID_35_);}
	.st37{fill:#1A3764;}
	.st38{fill:url(#SVGID_36_);}
	.st39{fill:url(#SVGID_37_);}
	.st40{fill:url(#SVGID_38_);}
	.st41{fill:url(#SVGID_39_);}
	.st42{fill:url(#SVGID_40_);}
	.st43{fill:url(#SVGID_41_);}
	.st44{fill:url(#SVGID_42_);}
	.st45{fill:url(#SVGID_43_);}
	.st46{fill:url(#SVGID_44_);}
	.st47{fill:url(#SVGID_45_);}
	.st48{fill:url(#SVGID_46_);}
	.st49{fill:url(#SVGID_47_);}
	.st50{fill:url(#SVGID_48_);}
	.st51{fill:url(#SVGID_49_);}
	.st52{fill:url(#SVGID_50_);}
	.st53{fill:url(#SVGID_51_);}
	.st54{fill:url(#SVGID_52_);}
	.st55{fill:url(#SVGID_53_);}
	.st56{fill:url(#SVGID_54_);}
	.st57{fill:url(#SVGID_55_);}
</style>
<g>
	<g>
		
			<linearGradient id="SVGID_1_" gradientUnits="userSpaceOnUse" x1="79.06" y1="429.0088" x2="336.87" y2="429.0088" gradientTransform="matrix(1 0 0 1 0 -71.9988)">
			<stop offset="0" style="stop-color:#EEBE47"></stop>
			<stop offset="0.1204" style="stop-color:#F8DB77"></stop>
			<stop offset="0.2097" style="stop-color:#FFEE96"></stop>
			<stop offset="0.4462" style="stop-color:#A2621E"></stop>
			<stop offset="0.6667" style="stop-color:#EEA54C"></stop>
			<stop offset="1" style="stop-color:#EEBE47"></stop>
		</linearGradient>
		<polygon class="st0" points="300.3,447 285.5,448.6 281.5,462.9 266.7,461.6 260.2,475 245.9,470.9 236.9,482.8 223.6,476.1     212.5,486 200.8,476.9 188,484.6 178.2,473.4 164.2,478.5 156.7,465.7 142,468.1 137,454.1 122.2,453.6 119.9,439 105.4,435.7     106,420.9 92.3,414.9 95.7,400.4 83.5,392 89.5,378.5 79.1,367.9 87.6,355.7 79.3,343.3 90,333 84.2,319.3 96.7,311.1 93.6,296.6     107.3,290.9 107.1,276.1 121.6,273.1 124.2,258.5 139.1,258.3 144.4,244.4 159,247.1 166.8,234.5 180.6,239.9 190.7,228.9     203.3,236.9 215.2,228 226.1,238.2 239.5,231.8 248.2,243.8 262.6,240 268.9,253.5 283.7,252.5 287.4,267 302.1,268.8 303,283.6     317.1,288.3 315.1,303 328.1,310.2 323.4,324.3 334.8,333.8 327.5,346.8 336.9,358.3 327.2,369.6 334.3,382.7 322.7,392     327.1,406.2 314,413.1 315.6,427.9 301.4,432.2   "></polygon>
		
			<linearGradient id="SVGID_2_" gradientUnits="userSpaceOnUse" x1="117.8497" y1="338.7385" x2="341.6605" y2="562.5492" gradientTransform="matrix(1 0 0 1 0 -71.9988)">
			<stop offset="0" style="stop-color:#EEBE47"></stop>
			<stop offset="0.1204" style="stop-color:#F8DB77"></stop>
			<stop offset="0.2097" style="stop-color:#FFEE96"></stop>
			<stop offset="0.4462" style="stop-color:#A2621E"></stop>
			<stop offset="0.6667" style="stop-color:#EEA54C"></stop>
			<stop offset="1" style="stop-color:#EEBE47"></stop>
		</linearGradient>
		<path class="st1" d="M324,356.9c0,64.1-51.9,116-116,116s-116-51.9-116-116s51.9-116,116-116C272,240.9,324,292.8,324,356.9z"></path>
		
			<linearGradient id="SVGID_3_" gradientUnits="userSpaceOnUse" x1="292.5464" y1="513.4195" x2="98.7028" y2="319.5759" gradientTransform="matrix(1 0 0 1 0 -71.9988)">
			<stop offset="0" style="stop-color:#EEBE47"></stop>
			<stop offset="0.1204" style="stop-color:#F8DB77"></stop>
			<stop offset="0.2097" style="stop-color:#FFEE96"></stop>
			<stop offset="0.4462" style="stop-color:#A2621E"></stop>
			<stop offset="0.6667" style="stop-color:#EEA54C"></stop>
			<stop offset="1" style="stop-color:#EEBE47"></stop>
		</linearGradient>
		<path class="st2" d="M320.1,356.9c0,61.9-50.2,112.2-112.1,112.2S95.8,418.8,95.8,356.9S146,244.7,208,244.7    C269.9,244.7,320.1,294.9,320.1,356.9z"></path>
		
			<linearGradient id="SVGID_4_" gradientUnits="userSpaceOnUse" x1="124.3525" y1="359.3116" x2="289.5981" y2="496.7405" gradientTransform="matrix(1 0 0 1 0 -71.9988)">
			<stop offset="0" style="stop-color:#EEBE47"></stop>
			<stop offset="0.1204" style="stop-color:#F8DB77"></stop>
			<stop offset="0.2097" style="stop-color:#FFEE96"></stop>
			<stop offset="0.4462" style="stop-color:#A2621E"></stop>
			<stop offset="0.6667" style="stop-color:#EEA54C"></stop>
			<stop offset="1" style="stop-color:#EEBE47"></stop>
		</linearGradient>
		<path class="st3" d="M317.4,356.9c0,60.5-49,109.5-109.5,109.5s-109.5-49-109.5-109.5c0-60.5,49-109.5,109.5-109.5    S317.4,296.4,317.4,356.9z"></path>
		
			<linearGradient id="SVGID_5_" gradientUnits="userSpaceOnUse" x1="271.9536" y1="492.8348" x2="130.5821" y2="351.4633" gradientTransform="matrix(1 0 0 1 0 -71.9988)">
			<stop offset="0" style="stop-color:#EEBE47"></stop>
			<stop offset="0.1204" style="stop-color:#F8DB77"></stop>
			<stop offset="0.2097" style="stop-color:#FFEE96"></stop>
			<stop offset="0.4462" style="stop-color:#A2621E"></stop>
			<stop offset="0.6667" style="stop-color:#EEA54C"></stop>
			<stop offset="1" style="stop-color:#EEBE47"></stop>
		</linearGradient>
		<path class="st4" d="M293.6,356.9c0,47.3-38.3,85.6-85.6,85.6s-85.6-38.3-85.6-85.6s38.3-85.6,85.6-85.6    C255.2,271.3,293.6,309.6,293.6,356.9z"></path>
		
			<radialGradient id="SVGID_6_" cx="123.3767" cy="273.3514" r="240.5906" gradientTransform="matrix(1 0 0 1 0 -71.9988)" gradientUnits="userSpaceOnUse">
			<stop offset="0.1398" style="stop-color:#363636"></stop>
			<stop offset="1" style="stop-color:#000000"></stop>
		</radialGradient>
		<path class="st5" d="M290.8,356.9c0,45.8-37.1,82.9-82.9,82.9s-82.9-37.1-82.9-82.9S162.2,274,208,274S290.8,311.1,290.8,356.9z"></path>
		
			<radialGradient id="SVGID_7_" cx="305.3624" cy="654.6355" r="352.1748" gradientTransform="matrix(1 0 0 1 0 -71.9988)" gradientUnits="userSpaceOnUse">
			<stop offset="0.1398" style="stop-color:#363636"></stop>
			<stop offset="1" style="stop-color:#000000"></stop>
		</radialGradient>
		<polygon class="st6" points="213.5,462.3 208,459.1 202.5,462.3 203.9,456.1 199.1,451.9 205.4,451.3 208,445.4 210.5,451.3     216.9,451.9 212.1,456.1   "></polygon>
		<g>
			<path class="st7" d="M174.4,457.6l-2.8-1l3.5-9.5l-3.7-1.4l1.2-3.4l6.5,2.4L174.4,457.6z"></path>
			<path class="st7" d="M165.5,441.7l3,1.4l1.6-1.9l2.7,1.3l-9.4,10.7l-2.6-1.3l2.4-14l2.8,1.3L165.5,441.7z M164.8,445.1l-0.7,3.5     l2.3-2.7L164.8,445.1z"></path>
			<path class="st7" d="M158.2,438.9l0.7,0.4l1.8-2.9l2.5,1.5l-7.1,11.7l-3.6-2.2c-0.7-0.4-1.2-1-1.5-1.6s-0.4-1.4-0.3-2.3     s0.5-1.7,1-2.6c0.5-0.8,1.1-1.5,1.7-2s1.3-0.8,1.9-0.8l0.6-4.6l2.7,1.6L158.2,438.9z M153.9,443.6c0,0.3,0.2,0.6,0.6,0.8l0.9,0.6     l1.7-2.7l-0.9-0.6c-0.3-0.2-0.7-0.3-1-0.1c-0.3,0.1-0.6,0.4-0.9,0.9C154,442.8,153.9,443.2,153.9,443.6z"></path>
			<path class="st7" d="M146.6,435.4l-2.1-1.5l3.5-4.6c0.8-0.1,1.5-0.1,2.2,0.1c0.7,0.2,1.4,0.5,1.9,0.9c0.8,0.6,1.2,1.3,1.5,2.2     s0.2,2-0.1,3.1s-0.9,2.2-1.7,3.3c-0.8,1.1-1.7,2-2.7,2.6c-1,0.6-2,0.9-2.9,1s-1.8-0.3-2.6-0.8c-0.7-0.5-1.2-1.2-1.4-1.9     s-0.3-1.6-0.2-2.6l3.1-0.9c-0.2,1.1,0.1,1.9,0.7,2.4c0.5,0.4,1.1,0.5,1.8,0.2c0.7-0.3,1.3-0.8,2-1.6c0.6-0.8,1-1.6,1-2.3     c0.1-0.7-0.1-1.3-0.6-1.7c-0.3-0.2-0.6-0.4-1.1-0.4L146.6,435.4z"></path>
			<path class="st7" d="M140.4,425.1l2.3-2.6l5.4,4.9l-9.2,10.1l-5.3-4.8l2.3-2.6l3.1,2.9l1.1-1.2l-2.8-2.5l2.2-2.5l2.8,2.5l1.2-1.3     L140.4,425.1z"></path>
			<path class="st7" d="M141.3,421.1c0.3,0.7,0.4,1.3,0.4,2l-3.1,1.6c0-0.6-0.1-1.1-0.3-1.6s-0.4-1-0.8-1.3     c-0.3-0.3-0.5-0.5-0.7-0.5c-0.2,0-0.4,0-0.6,0.2c-0.2,0.2-0.3,0.4-0.2,0.7c0.1,0.3,0.2,0.6,0.4,1.1c0.3,0.6,0.5,1.2,0.6,1.7     c0.1,0.5,0.1,1.1-0.1,1.7c-0.2,0.6-0.7,1.3-1.4,2c-0.6,0.6-1.3,1-2,1.3s-1.4,0.3-2.2,0.1c-0.7-0.2-1.4-0.6-2-1.2     c-0.4-0.4-0.7-1-1-1.5s-0.4-1.1-0.4-1.7l3.1-1.6c0.1,1.1,0.4,1.9,0.9,2.5c0.5,0.6,1,0.6,1.4,0.3c0.2-0.2,0.3-0.4,0.2-0.7     c-0.1-0.3-0.2-0.6-0.4-1.1c-0.3-0.6-0.5-1.2-0.6-1.7c-0.1-0.5-0.1-1.1,0.1-1.7s0.6-1.3,1.4-2c0.6-0.6,1.3-1,2-1.2     s1.4-0.3,2.2-0.1s1.4,0.6,2,1.2C140.7,419.9,141.1,420.5,141.3,421.1z"></path>
			<path class="st7" d="M127.7,420.8l1.6,2l-2.8,2.2l-5-6.4l2.8-2.2l1.6,2l8-6.2l1.8,2.3L127.7,420.8z"></path>
			<path class="st7" d="M118.4,414l-1.6-2.5l11.6-7.2l1.6,2.5L118.4,414z"></path>
			<path class="st7" d="M111.7,401.9l12.1-6.3l1.1,2.2l-4,5.8l5.5-2.9l1.3,2.6l-12.1,6.3l-1.1-2.2l4-5.8l-5.5,2.9L111.7,401.9z"></path>
			<path class="st7" d="M107.2,390.9l14.1-1.5l1.1,2.7l-11.4,8.5l-1.2-3l6.7-4.9l-8.2,0.9L107.2,390.9z"></path>
			<path class="st7" d="M114.7,379.8l3.3-1l2,7l-13.1,3.8l-2-6.9l3.3-1l1.2,4.1l1.5-0.4l-1-3.6l3.2-0.9l1,3.6l1.7-0.5L114.7,379.8z"></path>
			<path class="st7" d="M117.6,376.9c-0.1,0.7-0.3,1.4-0.7,1.9l-3.5-0.3c0.3-0.5,0.5-1,0.6-1.6s0.1-1.1,0.1-1.5     c-0.1-0.4-0.2-0.7-0.3-0.8c-0.2-0.1-0.3-0.2-0.6-0.1c-0.3,0.1-0.5,0.2-0.6,0.5c-0.1,0.3-0.2,0.7-0.2,1.2     c-0.1,0.7-0.2,1.3-0.4,1.8s-0.5,1-1,1.4c-0.5,0.4-1.2,0.8-2.2,1c-0.8,0.2-1.6,0.2-2.4,0s-1.4-0.5-1.9-1c-0.5-0.5-0.9-1.2-1-2.1     c-0.1-0.6-0.1-1.2-0.1-1.8c0.1-0.6,0.3-1.2,0.6-1.7l3.4,0.2c-0.5,1-0.7,1.8-0.5,2.6c0.2,0.8,0.5,1.1,1.1,1c0.3,0,0.4-0.2,0.5-0.5     c0.1-0.3,0.2-0.6,0.2-1.2c0.1-0.7,0.2-1.3,0.3-1.8s0.5-1,1-1.4c0.5-0.4,1.2-0.8,2.2-1c0.8-0.2,1.6-0.2,2.4,0     c0.7,0.2,1.4,0.5,1.9,1c0.5,0.5,0.9,1.2,1,2.1C117.7,375.5,117.7,376.2,117.6,376.9z"></path>
			<path class="st7" d="M106.1,369.5l0.3,2.6l-3.6,0.4l-0.9-8.1l3.6-0.4l0.3,2.6l10-1.1l0.3,2.9L106.1,369.5z"></path>
			<path class="st7" d="M115.4,354.7l-6.2,0l5,1.9l0,1.3l-4.8,1.9l6,0l0,2.7l-13.7,0.1l0-2.4l7.3-2.9l-7.3-2.8l0-2.4l13.7-0.1     L115.4,354.7z"></path>
			<path class="st7" d="M112.9,343.3l3.5,0.4l-0.8,7.3l-13.6-1.4l0.7-7.1l3.5,0.4l-0.4,4.2l1.6,0.2l0.4-3.7l3.3,0.3l-0.4,3.7     l1.8,0.2L112.9,343.3z"></path>
			<path class="st7" d="M104.7,331.7l13.4,2.7l-0.5,2.4l-6.8,2l6.1,1.2l-0.6,2.8l-13.4-2.7l0.5-2.4l6.8-2l-6.1-1.2L104.7,331.7z"></path>
			<path class="st7" d="M109.3,328.6l-0.8,2.5l-3.4-1l2.4-7.8l3.4,1l-0.8,2.5l9.7,2.9l-0.9,2.8L109.3,328.6z"></path>
			<path class="st7" d="M122.4,316l-1.4,3l1.9,1.5l-1.3,2.7l-10.8-9.2l1.2-2.6l14,2.2l-1.3,2.8L122.4,316z M119,315.3l-3.5-0.6     l2.8,2.2L119,315.3z"></path>
			<path class="st7" d="M122.8,305l1.3-2.2l5,2.9c0.2,0.7,0.3,1.5,0.2,2.2c-0.1,0.7-0.3,1.4-0.6,2c-0.5,0.8-1.2,1.4-2.1,1.7     c-0.9,0.3-1.9,0.4-3.1,0.2c-1.2-0.2-2.3-0.6-3.5-1.3c-1.2-0.7-2.2-1.5-2.9-2.4c-0.7-0.9-1.2-1.9-1.3-2.8s0-1.9,0.5-2.7     c0.4-0.7,1-1.3,1.8-1.7c0.7-0.4,1.6-0.5,2.6-0.5l1.3,3c-1.1,0-1.9,0.3-2.3,0.9c-0.3,0.6-0.3,1.2,0,1.8c0.3,0.6,0.9,1.2,1.9,1.8     c0.9,0.5,1.7,0.8,2.4,0.8c0.7,0,1.3-0.3,1.6-0.8c0.2-0.3,0.3-0.7,0.3-1.1L122.8,305z"></path>
			<path class="st7" d="M130.3,300.6l-0.5,0.6l2.8,2l-1.7,2.4l-11.1-8l2.5-3.4c0.5-0.7,1.1-1.1,1.8-1.4s1.4-0.3,2.3-0.1     c0.8,0.2,1.7,0.6,2.5,1.2c0.8,0.6,1.4,1.2,1.8,1.9c0.4,0.7,0.6,1.3,0.7,2l4.5,1l-1.9,2.6L130.3,300.6z M125.9,296     c-0.3,0-0.6,0.2-0.9,0.5l-0.6,0.9l2.6,1.9l0.6-0.9c0.2-0.3,0.3-0.6,0.2-1s-0.4-0.6-0.8-0.9C126.7,296.1,126.3,296,125.9,296z"></path>
			<path class="st7" d="M138.4,290.6l2.6,2.3l-4.8,5.5l-10.3-9l4.7-5.4l2.6,2.3l-2.8,3.2l1.2,1.1l2.4-2.8l2.5,2.2l-2.4,2.8l1.4,1.2     L138.4,290.6z"></path>
			<path class="st7" d="M144.5,284.7l2.4,2.5l-5.3,5l-9.4-9.9l5.2-4.9l2.4,2.5l-3.1,2.9l1.1,1.2l2.7-2.6l2.3,2.4l-2.7,2.6l1.2,1.3     L144.5,284.7z"></path>
			<path class="st7" d="M153.7,281.9l-3.8-4.9l1.5,5.1l-1,0.8l-4.4-2.6l3.7,4.8l-2.1,1.6l-8.3-10.8l1.9-1.5l6.7,4l-2.2-7.5l1.9-1.5     l8.4,10.8L153.7,281.9z"></path>
			<path class="st7" d="M161.2,272.9l1.8,3l-6.2,3.8l-7.1-11.7l6.1-3.7l1.8,3l-3.6,2.2l0.8,1.4l3.2-1.9l1.7,2.8l-3.2,1.9l0.9,1.5     L161.2,272.9z"></path>
			<path class="st7" d="M165.5,259.4l6,12.3l-2.2,1.1l-5.7-4.1l2.7,5.6l-2.6,1.3l-6-12.3l2.2-1.1l5.7,4.1l-2.7-5.6L165.5,259.4z"></path>
			<path class="st7" d="M170.8,261.2l-2.4,0.9l-1.2-3.4l7.6-2.8l1.2,3.4l-2.4,0.9l3.5,9.5l-2.8,1L170.8,261.2z"></path>
			<path class="st7" d="M189.7,262.5l0.8,3.4l-7.1,1.7l-3.1-13.3l6.9-1.6l0.8,3.4l-4.1,1l0.4,1.6l3.6-0.9l0.8,3.2l-3.6,0.9l0.4,1.8     L189.7,262.5z"></path>
			<path class="st7" d="M198.7,250.9l-1.8,14l-2.9,0.4l-5.5-13l3.2-0.4l3.2,7.6l1-8.2L198.7,250.9z"></path>
			<path class="st7" d="M207.6,260.8l0.1,3.5l-7.3,0.3l-0.6-13.6l7.1-0.3l0.1,3.5l-4.2,0.2l0.1,1.6l3.7-0.2l0.1,3.3l-3.7,0.2     l0.1,1.8L207.6,260.8z"></path>
			<path class="st7" d="M212.6,261l-0.8,0l-0.2,3.4l-3-0.1l0.7-13.6l4.2,0.2c0.8,0,1.5,0.3,2.1,0.7s1,1.1,1.3,1.9     c0.3,0.8,0.4,1.7,0.4,2.8c-0.1,1-0.2,1.8-0.6,2.5s-0.8,1.3-1.3,1.7l1.6,4.3l-3.2-0.2L212.6,261z M214,254.8     c-0.2-0.3-0.5-0.4-0.9-0.5l-1.1-0.1l-0.2,3.2l1.1,0c0.4,0,0.7-0.1,0.9-0.4c0.2-0.3,0.3-0.7,0.4-1.2     C214.3,255.5,214.2,255.1,214,254.8z"></path>
			<path class="st7" d="M224.9,255.6l-2.5-0.5l0.6-3.5l8,1.5l-0.6,3.5l-2.5-0.5l-1.8,9.9l-2.9-0.5L224.9,255.6z"></path>
			<path class="st7" d="M231,266.6c-0.6-0.8-0.9-1.8-1-2.9c-0.1-1.2,0-2.4,0.4-3.7c0.4-1.3,0.9-2.4,1.6-3.4s1.5-1.6,2.4-2     s1.8-0.4,2.7-0.2c0.9,0.3,1.6,0.8,2.2,1.6c0.6,0.8,0.9,1.8,1,2.9c0.1,1.2,0,2.4-0.4,3.7c-0.4,1.3-0.9,2.4-1.6,3.4s-1.5,1.6-2.4,2     s-1.8,0.4-2.7,0.2C232.3,267.9,231.6,267.4,231,266.6z M235.3,264.5c0.4-0.2,0.7-0.5,1-1s0.6-1,0.8-1.7s0.3-1.3,0.2-1.8     s-0.1-1-0.4-1.3c-0.2-0.4-0.5-0.6-0.8-0.7c-0.4-0.1-0.7-0.1-1.1,0.1c-0.4,0.2-0.7,0.5-1,1s-0.6,1-0.8,1.7s-0.3,1.3-0.2,1.8     s0.1,1,0.4,1.3s0.5,0.6,0.8,0.7C234.6,264.7,234.9,264.7,235.3,264.5z"></path>
			<path class="st7" d="M248.5,271.1l-3-1.4l-1.5,1.9l-2.7-1.2l9.1-10.9l2.6,1.2l-2.1,14l-2.8-1.3L248.5,271.1z M249.2,267.7     l0.6-3.5l-2.2,2.8L249.2,267.7z"></path>
			<path class="st7" d="M253,275.4c-0.3-0.9-0.4-1.9-0.2-3.1c0.2-1.1,0.6-2.3,1.3-3.5c0.7-1.2,1.5-2.2,2.4-2.9     c0.9-0.7,1.8-1.2,2.8-1.3s1.8,0,2.6,0.5c0.7,0.4,1.3,1,1.6,1.8c0.4,0.7,0.5,1.6,0.4,2.6l-2.9,1.3c0.1-1.2-0.2-2-0.9-2.4     c-0.5-0.3-1.1-0.3-1.8,0c-0.6,0.4-1.2,1-1.7,1.9c-0.5,0.9-0.8,1.7-0.8,2.4c0,0.7,0.3,1.2,0.8,1.5c0.6,0.4,1.5,0.2,2.5-0.4     l0.3,3.2c-0.8,0.5-1.6,0.9-2.5,0.9s-1.6-0.1-2.3-0.5C253.9,276.9,253.3,276.3,253,275.4z"></path>
			<path class="st7" d="M260.5,280c-0.3-0.9-0.2-2,0-3.1c0.3-1.1,0.8-2.3,1.6-3.4c0.8-1.1,1.7-2,2.7-2.6c1-0.6,1.9-1,2.9-1     s1.8,0.2,2.6,0.7c0.7,0.5,1.2,1.1,1.5,1.9c0.3,0.8,0.3,1.6,0.2,2.6l-3,1c0.2-1.2,0-2-0.6-2.4c-0.5-0.4-1.1-0.4-1.8-0.1     c-0.7,0.3-1.3,0.9-1.9,1.7c-0.6,0.9-0.9,1.6-1,2.4c0,0.7,0.2,1.3,0.7,1.6c0.6,0.4,1.4,0.4,2.5-0.2l0,3.2     c-0.9,0.5-1.7,0.7-2.5,0.7s-1.6-0.3-2.3-0.8C261.3,281.7,260.8,280.9,260.5,280z"></path>
			<path class="st7" d="M273.6,286.7l-2.3,2.6l-5.5-4.8l8.9-10.4l5.4,4.7l-2.3,2.6l-3.2-2.8l-1,1.2l2.8,2.4l-2.2,2.5l-2.8-2.4     l-1.2,1.4L273.6,286.7z"></path>
			<path class="st7" d="M281.7,280.4l2.1,2.1l-7.2,7.1l2.8,2.8l-2.5,2.5l-4.9-5L281.7,280.4z"></path>
			<path class="st7" d="M284.5,298.7l-2.7,2.2l-4.6-5.6l10.5-8.7l4.5,5.5l-2.7,2.2l-2.7-3.3l-1.2,1l2.4,2.9l-2.6,2.1l-2.4-2.9     l-1.4,1.1L284.5,298.7z"></path>
			<path class="st7" d="M287.3,302.8l-0.5-0.7l-2.8,1.9l-1.7-2.5l11.3-7.7l2.4,3.5c0.5,0.7,0.7,1.4,0.7,2.1c0,0.7-0.2,1.5-0.7,2.2     c-0.5,0.7-1.1,1.4-2,1.9c-0.8,0.5-1.6,0.9-2.4,1.1c-0.8,0.2-1.5,0.2-2.1,0l-2.5,3.9l-1.8-2.6L287.3,302.8z M293.1,300.3     c0.1-0.3,0.1-0.6-0.2-1l-0.6-0.9l-2.6,1.8l0.6,0.9c0.2,0.3,0.5,0.5,0.9,0.5c0.4,0,0.7-0.1,1.1-0.4     C292.7,300.9,293,300.6,293.1,300.3z"></path>
			<path class="st7" d="M292.3,313.2l-1.6-2.9l-2.4,0.6l-1.4-2.6l13.9-3.1l1.4,2.6l-10.2,9.9l-1.5-2.7L292.3,313.2z M294.8,310.9     l2.6-2.4l-3.4,0.9L294.8,310.9z"></path>
			<path class="st7" d="M301.7,315.1l-1-2.4l3.3-1.4l3.2,7.5l-3.3,1.4l-1-2.4l-9.3,4l-1.2-2.7L301.7,315.1z"></path>
			<path class="st7" d="M300.4,330.5l-3.3,1.1l-2.3-6.9l13-4.3l2.2,6.8l-3.3,1.1l-1.3-4l-1.5,0.5l1.2,3.5l-3.1,1l-1.2-3.5l-1.7,0.6     L300.4,330.5z"></path>
			<path class="st7" d="M303,342.4l-3.4,0.7l-1.4-7.2l13.4-2.6l1.4,7l-3.4,0.7l-0.8-4.1l-1.6,0.3l0.7,3.6l-3.3,0.6l-0.7-3.6     l-1.8,0.3L303,342.4z"></path>
			<path class="st7" d="M300.5,345.9c0.5-0.8,1.3-1.5,2.4-2s2.3-0.9,3.6-1c1.4-0.1,2.6,0,3.8,0.3c1.1,0.3,2,0.8,2.7,1.5     c0.7,0.7,1.1,1.5,1.1,2.4c0.1,0.9-0.1,1.6-0.5,2.3s-1,1.3-1.9,1.9l-2.8-1.6c1-0.6,1.5-1.3,1.4-2.1c-0.1-0.6-0.4-1.1-1.1-1.4     c-0.6-0.3-1.5-0.4-2.5-0.3c-1,0.1-1.8,0.4-2.4,0.8c-0.6,0.4-0.8,1-0.8,1.6c0.1,0.7,0.7,1.3,1.8,1.8l-2.4,2.1     c-0.9-0.4-1.6-0.8-2.2-1.5c-0.5-0.6-0.8-1.4-0.9-2.2C299.7,347.5,299.9,346.6,300.5,345.9z"></path>
			<path class="st7" d="M301.1,354.7c0.6-0.8,1.5-1.3,2.6-1.8s2.3-0.6,3.7-0.6c1.4,0,2.6,0.2,3.7,0.7c1.1,0.4,1.9,1,2.5,1.8     s0.9,1.6,0.9,2.5c0,1-0.3,1.8-0.9,2.5c-0.6,0.8-1.5,1.3-2.5,1.8c-1.1,0.4-2.3,0.6-3.7,0.6c-1.4,0-2.6-0.2-3.7-0.7s-1.9-1-2.5-1.8     c-0.6-0.8-0.9-1.6-0.9-2.5C300.2,356.3,300.5,355.5,301.1,354.7z M304.3,358.3c0.3,0.3,0.7,0.5,1.2,0.7c0.5,0.2,1.1,0.3,1.8,0.3     s1.3-0.1,1.8-0.3c0.5-0.2,0.9-0.4,1.2-0.7c0.3-0.3,0.4-0.6,0.4-1s-0.1-0.7-0.4-1s-0.7-0.5-1.2-0.7c-0.5-0.2-1.1-0.3-1.8-0.3     s-1.3,0.1-1.8,0.3c-0.5,0.2-0.9,0.4-1.2,0.7c-0.3,0.3-0.4,0.6-0.4,1C303.9,357.6,304,358,304.3,358.3z"></path>
			<path class="st7" d="M313,373.1l-13.6-1.5l0.3-2.4l6.5-2.6l-6.2-0.7l0.3-2.9l13.6,1.5l-0.3,2.4l-6.5,2.6l6.2,0.7L313,373.1z"></path>
			<path class="st7" d="M299.4,374.7c0.8-0.6,1.7-1,2.9-1.2c1.1-0.2,2.4-0.1,3.7,0.2c1.3,0.3,2.5,0.8,3.5,1.4s1.7,1.4,2.1,2.3     s0.5,1.8,0.3,2.7c-0.2,0.9-0.7,1.7-1.5,2.3c-0.8,0.6-1.7,1-2.9,1.2c-1.2,0.2-2.4,0.1-3.7-0.2c-1.3-0.3-2.5-0.8-3.5-1.4     c-1-0.7-1.7-1.4-2.1-2.3s-0.5-1.8-0.3-2.7C298.1,376.1,298.6,375.3,299.4,374.7z M301.8,378.9c0.2,0.4,0.5,0.7,1,1     c0.5,0.3,1,0.5,1.7,0.6s1.3,0.2,1.8,0.1s1-0.2,1.3-0.4c0.3-0.2,0.5-0.5,0.6-0.9c0.1-0.4,0-0.7-0.2-1.1s-0.5-0.7-1-1     s-1-0.5-1.7-0.6s-1.3-0.2-1.8-0.1s-1,0.2-1.3,0.4c-0.3,0.2-0.5,0.5-0.6,0.9C301.5,378.2,301.5,378.5,301.8,378.9z"></path>
			<path class="st7" d="M294.4,390l5.9,2l-4.1-3.5l0.4-1.2l5.1-0.2l-5.7-2l0.9-2.5l12.9,4.5l-0.8,2.3l-7.8,0.3l5.9,5l-0.8,2.3     l-12.9-4.5L294.4,390z"></path>
			<path class="st7" d="M305.4,399.1l-1.2,2.7l-12.5-5.6l1.2-2.7L305.4,399.1z"></path>
			<path class="st7" d="M290.8,399.4c0.9-0.4,1.9-0.5,3.1-0.3c1.2,0.1,2.3,0.5,3.6,1.2c1.2,0.6,2.2,1.4,3,2.3     c0.8,0.9,1.2,1.8,1.4,2.8c0.2,0.9,0,1.8-0.4,2.6c-0.4,0.8-1,1.3-1.7,1.7s-1.6,0.5-2.6,0.5l-1.4-2.9c1.2,0,2-0.3,2.3-0.9     c0.3-0.5,0.3-1.1-0.1-1.8c-0.4-0.6-1-1.2-1.9-1.7c-0.9-0.5-1.7-0.7-2.5-0.7c-0.7,0-1.2,0.3-1.5,0.9c-0.4,0.6-0.2,1.5,0.5,2.5     l-3.2,0.4c-0.6-0.8-0.9-1.6-1-2.4c-0.1-0.8,0.1-1.6,0.5-2.3C289.2,400.3,289.9,399.8,290.8,399.4z"></path>
			<path class="st7" d="M287.3,417.2l-1.5,2.1l-4.7-3.4c-0.1-0.8-0.1-1.5,0-2.2c0.2-0.7,0.4-1.4,0.8-1.9c0.5-0.8,1.3-1.3,2.2-1.5     s2-0.2,3.1,0.1c1.1,0.3,2.3,0.9,3.4,1.7c1.1,0.8,2,1.7,2.6,2.7c0.6,1,1,2,1,2.9s-0.2,1.8-0.8,2.6c-0.5,0.7-1.1,1.2-1.9,1.5     s-1.6,0.4-2.6,0.2l-1-3.1c1.1,0.1,1.9-0.1,2.4-0.7c0.4-0.5,0.4-1.1,0.2-1.8c-0.3-0.7-0.8-1.3-1.7-1.9c-0.8-0.6-1.6-0.9-2.3-1     s-1.3,0.2-1.7,0.7c-0.2,0.3-0.4,0.7-0.4,1.1L287.3,417.2z"></path>
			<path class="st7" d="M279.4,420.9l0.5-0.6l-2.6-2.3l2-2.2l10.2,9.1l-2.8,3.1c-0.5,0.6-1.2,1-1.9,1.2s-1.5,0.1-2.3-0.2     s-1.6-0.8-2.4-1.5c-0.7-0.6-1.3-1.3-1.6-2s-0.5-1.4-0.5-2.1l-4.4-1.4l2.1-2.4L279.4,420.9z M283.3,425.9c0.3,0,0.6-0.1,0.9-0.4     l0.7-0.8l-2.4-2.1l-0.7,0.8c-0.3,0.3-0.4,0.6-0.3,1c0.1,0.3,0.3,0.7,0.7,1C282.6,425.7,283,425.9,283.3,425.9z"></path>
			<path class="st7" d="M272.3,424.3c1,0,2,0.2,3,0.7c1,0.5,2,1.3,2.9,2.3c0.9,1,1.6,2.1,2,3.2c0.4,1.1,0.5,2.1,0.4,3.1     s-0.6,1.8-1.3,2.4c-0.7,0.6-1.5,1-2.5,1c-1,0-2-0.2-3-0.7c-1-0.5-2-1.3-2.9-2.3c-0.9-1-1.6-2.1-2-3.2c-0.4-1.1-0.5-2.1-0.4-3.1     s0.6-1.8,1.3-2.4S271.3,424.3,272.3,424.3z M271.8,429c0,0.4,0.1,0.9,0.3,1.4c0.2,0.5,0.5,1,1,1.5c0.5,0.5,0.9,0.9,1.4,1.2     c0.5,0.3,0.9,0.4,1.3,0.4c0.4,0,0.8-0.1,1-0.4s0.4-0.6,0.5-1s-0.1-0.9-0.3-1.4s-0.5-1-1-1.5c-0.5-0.5-0.9-0.9-1.4-1.2     c-0.5-0.3-0.9-0.4-1.3-0.4c-0.4,0-0.8,0.1-1,0.4S271.8,428.6,271.8,429z"></path>
			<path class="st7" d="M262.1,448.5l-5.5-12.8l2.6-1.8l5.3,5.2l-2.9-6.9l2.6-1.8l10.1,9.6l-2.5,1.7l-5.7-5.5l3.1,7.3l-2.2,1.5     l-5.7-5.6l3.1,7.4L262.1,448.5z"></path>
			<path class="st7" d="M257.1,447l2.3-1.2l1.7,3.2l-7.2,3.8l-1.7-3.2l2.3-1.2l-4.7-8.9l2.6-1.4L257.1,447z"></path>
			<path class="st7" d="M244.3,456.8l-5.2-12.6l2.7-1.1l1.9,4.7l2.5-1l-1.9-4.7l2.7-1.1l5.2,12.6l-2.7,1.1l-1.8-4.5l-2.5,1l1.8,4.5     L244.3,456.8z"></path>
		</g>
	</g>
	<g>
		<path class="st8" d="M135.6,365.8c-0.5-0.2-1-0.4-1.3-0.7l0.7-2.1c0.3,0.2,0.7,0.4,1.1,0.6s0.8,0.2,1.1,0.2c0.3,0,0.5,0,0.7-0.1    s0.2-0.2,0.2-0.4c0-0.2-0.1-0.3-0.3-0.4c-0.2-0.1-0.5-0.2-0.9-0.3c-0.5-0.1-1-0.3-1.3-0.5c-0.4-0.2-0.6-0.4-0.9-0.8    c-0.3-0.4-0.4-0.9-0.4-1.5c0-0.5,0.1-1,0.4-1.5s0.6-0.8,1.1-1.1s1.1-0.4,1.7-0.4c0.5,0,0.9,0.1,1.4,0.2s0.8,0.3,1.2,0.6l-0.7,2.1    c-0.7-0.4-1.3-0.6-1.9-0.6c-0.6,0-0.9,0.2-0.9,0.5c0,0.2,0.1,0.3,0.3,0.4c0.2,0.1,0.5,0.2,0.9,0.3c0.5,0.1,0.9,0.3,1.3,0.4    s0.7,0.4,0.9,0.8c0.3,0.4,0.4,0.9,0.4,1.5c0,0.5-0.1,1-0.4,1.5s-0.6,0.8-1.1,1.1s-1.1,0.4-1.7,0.4    C136.7,366.1,136.2,366,135.6,365.8z"></path>
		<path class="st8" d="M141.1,357.1h2.3v8.8h-2.3V357.1z"></path>
		<path class="st8" d="M149,361.3h2v3.7c-0.4,0.4-0.9,0.6-1.4,0.8c-0.5,0.2-1.1,0.3-1.6,0.3c-0.7,0-1.4-0.2-1.9-0.6    c-0.6-0.4-1-0.9-1.4-1.6c-0.3-0.7-0.5-1.5-0.5-2.4s0.2-1.7,0.5-2.4c0.3-0.7,0.8-1.2,1.4-1.6c0.6-0.4,1.3-0.6,2-0.6    c0.7,0,1.3,0.1,1.8,0.4c0.5,0.3,1,0.7,1.3,1.3l-1.5,1.7c-0.4-0.6-0.9-1-1.5-1c-0.5,0-0.9,0.2-1.2,0.6c-0.3,0.4-0.4,0.9-0.4,1.6    c0,0.7,0.1,1.2,0.4,1.6c0.3,0.4,0.7,0.6,1.2,0.6c0.3,0,0.6-0.1,0.8-0.2L149,361.3L149,361.3z"></path>
		<path class="st8" d="M152.8,360.6h4.9v1.6h-4.9V360.6z"></path>
		<path class="st8" d="M165.9,362.1c0.2,0.4,0.3,0.8,0.3,1.3c0,0.8-0.3,1.4-0.7,1.8s-1.2,0.6-2.1,0.6h-3.8v-8.8h3.6    c0.9,0,1.6,0.2,2.1,0.6s0.7,1,0.7,1.7c0,0.4-0.1,0.8-0.2,1.1c-0.2,0.3-0.4,0.6-0.7,0.8C165.3,361.5,165.6,361.8,165.9,362.1z     M161.8,359.2v1.3h1.1c0.5,0,0.8-0.2,0.8-0.6s-0.3-0.6-0.8-0.6H161.8z M163.9,363.1c0-0.5-0.3-0.7-0.8-0.7h-1.4v1.4h1.4    C163.6,363.8,163.9,363.6,163.9,363.1z"></path>
		<path class="st8" d="M171.6,364.4H169l-0.5,1.5h-2.3l3-8.8h2.3l3,8.8h-2.4L171.6,364.4z M171,362.2l-0.7-2.2l-0.7,2.2H171z"></path>
		<path class="st8" d="M181.5,357.1v8.8h-1.9l-2.6-4v4h-2.2v-8.8h1.9l2.6,4v-4H181.5z"></path>
		<path class="st8" d="M187.1,361.3h2v3.7c-0.4,0.4-0.9,0.6-1.4,0.8s-1.1,0.3-1.6,0.3c-0.7,0-1.4-0.2-1.9-0.6    c-0.6-0.4-1-0.9-1.4-1.6c-0.3-0.7-0.5-1.5-0.5-2.4s0.2-1.7,0.5-2.4c0.3-0.7,0.8-1.2,1.4-1.6c0.6-0.4,1.3-0.6,2-0.6    c0.7,0,1.3,0.1,1.8,0.4c0.5,0.3,1,0.7,1.3,1.3l-1.5,1.7c-0.4-0.6-0.9-1-1.5-1c-0.5,0-0.9,0.2-1.2,0.6c-0.3,0.4-0.4,0.9-0.4,1.6    c0,0.7,0.1,1.2,0.4,1.6c0.3,0.4,0.7,0.6,1.2,0.6c0.3,0,0.6-0.1,0.8-0.2L187.1,361.3L187.1,361.3z"></path>
		<path class="st8" d="M190.1,357.1h2.3v6.5h3.1v2.3h-5.4L190.1,357.1L190.1,357.1z"></path>
		<path class="st8" d="M200.8,364.4h-2.6l-0.4,1.5h-2.3l3-8.8h2.3l3,8.8h-2.4L200.8,364.4z M200.1,362.2l-0.7-2.2l-0.7,2.2H200.1z"></path>
		<path class="st8" d="M203.9,357.1h3.3c0.8,0,1.4,0.2,2,0.5s1,0.9,1.4,1.5s0.5,1.4,0.5,2.3c0,0.9-0.2,1.7-0.5,2.3    c-0.3,0.7-0.8,1.2-1.4,1.5c-0.6,0.4-1.3,0.5-2,0.5h-3.3V357.1z M207.2,363.6c0.5,0,0.9-0.2,1.2-0.5c0.3-0.4,0.4-0.9,0.4-1.5    s-0.1-1.2-0.4-1.5c-0.3-0.4-0.7-0.5-1.2-0.5h-1v4.1L207.2,363.6L207.2,363.6z"></path>
		<path class="st8" d="M217.6,363.7v2.2h-5.6v-8.8h5.5v2.2h-3.3v1h2.9v2.1h-2.9v1.1L217.6,363.7L217.6,363.7L217.6,363.7z"></path>
		<path class="st8" d="M219.4,365.8c-0.5-0.2-1-0.4-1.3-0.7l0.7-2.1c0.3,0.2,0.7,0.4,1.1,0.6c0.4,0.1,0.8,0.2,1.1,0.2    c0.3,0,0.5,0,0.7-0.1s0.2-0.2,0.2-0.4c0-0.2-0.1-0.3-0.3-0.4c-0.2-0.1-0.5-0.2-0.9-0.3c-0.5-0.1-1-0.3-1.3-0.5s-0.6-0.4-0.9-0.8    c-0.3-0.4-0.4-0.9-0.4-1.5c0-0.5,0.1-1,0.4-1.5s0.6-0.8,1.1-1.1s1.1-0.4,1.7-0.4c0.5,0,0.9,0.1,1.4,0.2s0.8,0.3,1.2,0.6l-0.7,2.1    c-0.7-0.4-1.3-0.6-1.9-0.6s-0.9,0.2-0.9,0.5c0,0.2,0.1,0.3,0.3,0.4c0.2,0.1,0.5,0.2,0.9,0.3c0.5,0.1,0.9,0.3,1.3,0.4    c0.4,0.2,0.7,0.4,0.9,0.8c0.3,0.4,0.4,0.9,0.4,1.5c0,0.5-0.1,1-0.4,1.5c-0.2,0.5-0.6,0.8-1.1,1.1s-1.1,0.4-1.7,0.4    C220.4,366.1,219.9,366,219.4,365.8z"></path>
		<path class="st8" d="M231.5,357.1v8.8h-2.3v-3.2h-2.1v3.2h-2.3v-8.8h2.3v3.1h2.1v-3.1H231.5z"></path>
		<path class="st8" d="M237.8,359.4v1.5h2.8v2.2h-2.8v2.8h-2.3v-8.8h5.5v2.2L237.8,359.4L237.8,359.4z"></path>
		<path class="st8" d="M241.8,357.1h2.3v8.8h-2.3V357.1z"></path>
		<path class="st8" d="M251.9,357.1v8.8H250l-2.6-4v4h-2.2v-8.8h1.9l2.6,4v-4H251.9z"></path>
		<path class="st8" d="M257.6,364.4H255l-0.4,1.5h-2.3l3-8.8h2.3l3,8.8h-2.4L257.6,364.4z M257,362.2l-0.7-2.2l-0.7,2.2H257z"></path>
		<path class="st8" d="M267.5,357.1v8.8h-1.9l-2.6-4v4h-2.2v-8.8h1.9l2.6,4v-4H267.5z"></path>
		<path class="st8" d="M270.1,365.5c-0.6-0.4-1-0.9-1.4-1.6c-0.3-0.7-0.5-1.5-0.5-2.4s0.2-1.7,0.5-2.4c0.3-0.7,0.8-1.2,1.4-1.6    c0.6-0.4,1.2-0.6,1.9-0.6c0.7,0,1.3,0.1,1.8,0.5c0.5,0.3,0.9,0.7,1.3,1.3l-1.4,1.7c-0.4-0.7-0.9-1-1.5-1c-0.5,0-0.9,0.2-1.1,0.6    c-0.3,0.4-0.4,0.9-0.4,1.6s0.1,1.2,0.4,1.6c0.3,0.4,0.7,0.6,1.1,0.6c0.6,0,1.1-0.3,1.5-1l1.4,1.7c-0.3,0.6-0.8,1-1.3,1.3    s-1.1,0.5-1.8,0.5C271.4,366.1,270.7,365.9,270.1,365.5z"></path>
		<path class="st8" d="M281.4,363.7v2.2h-5.6v-8.8h5.5v2.2H278v1h2.9v2.1H278v1.1L281.4,363.7L281.4,363.7z"></path>
		<path class="st8" d="M146.4,387.5l0-6.9l-2.7,5.5h-1.8l-2.7-5.3v6.6h-3.8v-15.1h3.4l4,8.1l3.9-8.1h3.4l0,15.1L146.4,387.5    L146.4,387.5z"></path>
		<path class="st8" d="M162.4,383.6v3.9h-10.3v-15.1h10v3.9h-5.9v1.8h5.2v3.7h-5.2v2L162.4,383.6L162.4,383.6L162.4,383.6z"></path>
		<path class="st8" d="M175.1,387.5l0-6.9l-2.7,5.5h-1.8l-2.7-5.3v6.6H164v-15.1h3.4l4,8.1l3.9-8.1h3.4l0,15.1L175.1,387.5    L175.1,387.5z"></path>
		<path class="st8" d="M183.8,386.8c-1.1-0.7-1.9-1.6-2.5-2.8s-0.9-2.6-0.9-4.1s0.3-2.9,0.9-4.1c0.6-1.2,1.4-2.1,2.5-2.8    c1.1-0.7,2.3-1,3.6-1s2.5,0.3,3.6,1s1.9,1.6,2.5,2.8s0.9,2.6,0.9,4.1s-0.3,2.9-0.9,4.1c-0.6,1.2-1.4,2.1-2.5,2.8    c-1.1,0.7-2.3,1-3.6,1C186,387.8,184.8,387.5,183.8,386.8z M188.8,383.3c0.4-0.3,0.8-0.8,1-1.3s0.4-1.2,0.4-2c0-0.8-0.1-1.4-0.4-2    s-0.6-1-1-1.3s-0.9-0.5-1.4-0.5c-0.5,0-1,0.1-1.4,0.5c-0.4,0.3-0.8,0.8-1,1.3s-0.4,1.2-0.4,2c0,0.8,0.1,1.4,0.4,2s0.6,1,1,1.3    s0.9,0.5,1.4,0.5S188.3,383.6,188.8,383.3z"></path>
		<path class="st8" d="M201.1,383.7H200v3.8h-4.2v-15.1h5.9c1.1,0,2.1,0.2,3,0.7c0.9,0.5,1.5,1.1,2,2c0.5,0.9,0.7,1.9,0.7,3    c0,1.1-0.2,2-0.6,2.8c-0.4,0.8-1,1.5-1.7,1.9l2.6,4.7h-4.4L201.1,383.7z M202.8,376.8c-0.3-0.3-0.7-0.5-1.3-0.5H200v3.5h1.5    c0.6,0,1-0.1,1.3-0.5s0.4-0.7,0.4-1.3S203.1,377.1,202.8,376.8z"></path>
		<path class="st8" d="M217.4,384.9h-4.7l-0.8,2.6h-4.2l5.4-15.1h4.1l5.4,15.1h-4.3L217.4,384.9z M216.2,381.2l-1.2-3.8l-1.2,3.8    H216.2z"></path>
		<path class="st8" d="M235.4,372.4v15.1h-3.4l-4.7-6.9v6.9h-4.1v-15.1h3.4l4.7,6.9v-6.9H235.4z"></path>
		<path class="st8" d="M237.4,372.4h6.1c1.4,0,2.6,0.3,3.6,0.9c1.1,0.6,1.9,1.5,2.4,2.6s0.9,2.5,0.9,4c0,1.5-0.3,2.9-0.9,4    c-0.6,1.1-1.4,2-2.4,2.6c-1.1,0.6-2.3,0.9-3.6,0.9h-6.1V372.4z M243.3,383.5c0.9,0,1.6-0.3,2.1-0.9c0.5-0.6,0.8-1.5,0.8-2.6    s-0.3-2-0.8-2.6s-1.3-0.9-2.1-0.9h-1.8v7.2L243.3,383.5L243.3,383.5z"></path>
		<path class="st8" d="M253.4,386c-1.1-1.3-1.6-3-1.6-5.3v-8.3h4.2v8.2c0,1.1,0.2,1.9,0.5,2.4c0.3,0.5,0.8,0.8,1.4,0.8    s1.1-0.3,1.4-0.8c0.3-0.5,0.5-1.3,0.5-2.4v-8.2h4.1v8.3c0,2.3-0.5,4-1.6,5.3s-2.5,1.9-4.4,1.9C256,387.8,254.5,387.2,253.4,386z"></path>
		<path class="st8" d="M276.8,387.5l0-6.9l-2.7,5.5h-1.8l-2.7-5.3v6.6h-3.8v-15.1h3.4l4,8.1l3.9-8.1h3.4l0,15.1L276.8,387.5    L276.8,387.5z"></path>
		<path class="st8" d="M170.9,409c-1-0.3-1.8-0.7-2.4-1.1l1.3-3.7c0.6,0.4,1.3,0.8,2,1s1.4,0.4,2.1,0.4c0.6,0,1-0.1,1.2-0.2    c0.3-0.1,0.4-0.3,0.4-0.6c0-0.3-0.2-0.5-0.5-0.7c-0.3-0.2-0.9-0.3-1.6-0.5c-0.9-0.2-1.8-0.5-2.4-0.8s-1.2-0.7-1.7-1.4    s-0.7-1.5-0.7-2.6c0-1,0.2-1.8,0.6-2.6c0.4-0.8,1.1-1.4,1.9-1.8c0.9-0.5,1.9-0.7,3.1-0.7c0.9,0,1.7,0.1,2.5,0.3s1.5,0.5,2.2,1    l-1.3,3.7c-1.2-0.8-2.4-1.1-3.4-1.1c-1.1,0-1.6,0.3-1.6,1c0,0.3,0.2,0.5,0.5,0.7c0.3,0.1,0.8,0.3,1.6,0.5c0.9,0.2,1.7,0.5,2.4,0.8    c0.6,0.3,1.2,0.7,1.7,1.4c0.5,0.6,0.7,1.5,0.7,2.6c0,1-0.2,1.8-0.6,2.6c-0.4,0.8-1.1,1.4-1.9,1.8c-0.9,0.5-1.9,0.7-3.1,0.7    C172.8,409.4,171.8,409.3,170.9,409z"></path>
		<path class="st8" d="M180.8,394h4.2v15.1h-4.2V394z"></path>
		<path class="st8" d="M195.2,401.1h3.6v6.4c-0.7,0.6-1.6,1.1-2.5,1.4c-1,0.3-1.9,0.5-2.8,0.5c-1.3,0-2.5-0.3-3.6-1    c-1.1-0.7-1.9-1.6-2.5-2.8c-0.6-1.2-0.9-2.6-0.9-4.1c0-1.5,0.3-2.9,0.9-4.1c0.6-1.2,1.4-2.1,2.5-2.8c1.1-0.7,2.3-1,3.6-1    c1.2,0,2.3,0.3,3.3,0.8c1,0.5,1.8,1.2,2.4,2.2l-2.7,2.9c-0.8-1.1-1.7-1.7-2.8-1.7c-0.9,0-1.6,0.3-2.2,1c-0.5,0.7-0.8,1.6-0.8,2.8    c0,1.1,0.3,2,0.8,2.7s1.3,1,2.1,1c0.5,0,1-0.1,1.5-0.4V401.1z"></path>
		<path class="st8" d="M212.8,394v15.1h-3.4l-4.7-6.9v6.9h-4.1V394h3.4l4.7,6.9V394H212.8z"></path>
		<path class="st8" d="M214.8,394h4.2v15.1h-4.2V394z"></path>
		<path class="st8" d="M233.1,394v15.1h-3.4l-4.7-6.9v6.9h-4.1V394h3.4l4.7,6.9V394H233.1z"></path>
		<path class="st8" d="M243.3,401.1h3.6v6.4c-0.7,0.6-1.6,1.1-2.5,1.4c-1,0.3-1.9,0.5-2.8,0.5c-1.3,0-2.5-0.3-3.6-1    c-1.1-0.7-1.9-1.6-2.5-2.8c-0.6-1.2-0.9-2.6-0.9-4.1c0-1.5,0.3-2.9,0.9-4.1c0.6-1.2,1.4-2.1,2.5-2.8c1.1-0.7,2.3-1,3.6-1    c1.2,0,2.3,0.3,3.3,0.8c1,0.5,1.8,1.2,2.4,2.2l-2.7,2.9c-0.8-1.1-1.7-1.7-2.8-1.7c-0.9,0-1.6,0.3-2.2,1c-0.5,0.7-0.8,1.6-0.8,2.8    c0,1.1,0.3,2,0.8,2.7s1.3,1,2.1,1c0.5,0,1-0.1,1.5-0.4V401.1z"></path>
	</g>
	<g>
		<g>
			
				<radialGradient id="SVGID_8_" cx="147.062" cy="413.7443" r="48.357" gradientTransform="matrix(1 0 0 1 0 -71.9988)" gradientUnits="userSpaceOnUse">
				<stop offset="0" style="stop-color:#EEBE47"></stop>
				<stop offset="0.1204" style="stop-color:#F8DB77"></stop>
				<stop offset="0.2097" style="stop-color:#FFEE96"></stop>
				<stop offset="0.4462" style="stop-color:#A2621E"></stop>
				<stop offset="0.6667" style="stop-color:#EEA54C"></stop>
				<stop offset="1" style="stop-color:#EEBE47"></stop>
			</radialGradient>
			<path class="st9" d="M187,316.8C187,316.8,186.9,316.8,187,316.8c-0.2,0.1-0.3,0.2-0.5,0.2c-0.8,0.4-1.6,0.8-2.4,1.2     c-0.5,0.3-1,0.5-1.5,0.8c-0.4,0.2-0.8,0.4-1.2,0.6c-0.2,0.1-0.4,0.2-0.6,0.4c-0.1,0-0.2,0.1-0.2,0.2c0,0-0.1,0-0.1,0     c-0.3,0.1-0.5,0-0.8-0.2c-0.1-0.1-0.2-0.2-0.3-0.4c-0.1-0.1-0.1-0.2-0.1-0.4c-0.1-0.2-0.2-0.4-0.3-0.6c0,0,0-0.1-0.1-0.1     c0,0,0,0-0.1,0c0,0,0,0,0,0c-0.6,0.3-1.1,0.6-1.7,0.9c-0.2,0.1-0.4,0.2-0.6,0.3c-0.8,0.4-1.5,0.7-2.3,1c-0.5,0.2-1,0.4-1.6,0.5     c-0.1,0-0.2,0-0.2,0.1c-0.2,0-0.4,0.1-0.6,0.2c-0.3,0.1-0.6,0.2-0.8,0.4c-0.1,0-0.1,0.1-0.2,0.1c0,0-0.1,0-0.1,0.1     c0,0.1-0.1,0.1-0.1,0.2c-0.5,0.9-1,1.7-1.6,2.5c-0.3,0.3-0.5,0.6-0.8,0.9c-0.2,0.2-0.4,0.5-0.7,0.7c-0.5,0.5-1.1,0.9-1.6,1.3     c-0.4,0.3-0.9,0.5-1.3,0.7c-0.5,0.2-1,0.4-1.4,0.6c-0.6,0.2-1.2,0.4-1.8,0.6c-0.7,0.2-1.3,0.4-1.9,0.7c-0.4,0.1-0.7,0.3-1.1,0.5     c-0.7,0.3-1.3,0.8-1.9,1.3c-0.4,0.4-0.8,0.7-1.2,1.1c-0.4,0.4-0.8,0.9-1.1,1.4c-0.4,0.5-0.8,1.1-1.1,1.6     c-0.2,0.4-0.4,0.8-0.7,1.1c-0.2,0.3-0.3,0.6-0.5,0.9c-0.2,0.4-0.4,0.8-0.7,1.2c-0.3,0.5-0.6,0.9-0.9,1.4     c-0.2,0.3-0.4,0.5-0.6,0.7c-0.2,0.2-0.4,0.3-0.6,0.4c-0.1,0-0.1,0.1-0.2,0.1c0,0-0.1,0-0.1,0c0,0,0,0,0-0.1c0,0,0-0.1,0-0.1     c0,0,0-0.1,0-0.1c0-0.1,0-0.2,0-0.4c0-0.2,0-0.5,0-0.7c0-0.1,0-0.3,0-0.4c0-0.1,0-0.1,0-0.2c0-0.1,0.1-0.2,0.2-0.3     c0,0,0.1,0,0.1-0.1c0.1,0,0.1-0.1,0.1-0.1c0.2-0.1,0.3-0.3,0.4-0.5c0,0,0-0.1,0.1-0.1c0,0,0-0.1,0-0.1c0.1-0.2,0.1-0.3,0.3-0.4     c0.1-0.1,0.1-0.1,0.2-0.2c0.3-0.2,0.5-0.4,0.7-0.5c0.1-0.1,0.2-0.2,0.3-0.3c0.4-0.4,0.8-0.8,1.1-1.1c0.4-0.5,0.8-0.9,1.1-1.4     c0.3-0.4,0.6-0.9,1-1.3c0.3-0.4,0.7-0.8,1-1.2c0.3-0.3,0.6-0.6,0.9-0.9c0.5-0.4,0.9-0.8,1.4-1.2c0.5-0.4,1-0.7,1.5-1     c0.9-0.5,1.8-1,2.7-1.4c0.4-0.2,0.7-0.3,1.1-0.5c0.3-0.1,0.6-0.3,0.9-0.4c0.3-0.1,0.7-0.3,1-0.4c0.4-0.2,0.8-0.4,1.2-0.7     c0.4-0.3,0.8-0.6,1.2-0.9c0.4-0.3,0.8-0.6,1.2-1c0.4-0.4,0.8-0.7,1.1-1.1c0.2-0.2,0.4-0.5,0.5-0.7c0-0.1,0.1-0.1,0.1-0.2     c0,0,0-0.1,0-0.1c0-0.2,0.1-0.5,0.1-0.7c0-0.3,0.1-0.5,0.1-0.7c0,0,0-0.1,0-0.1c0-0.1,0-0.1,0.1-0.2c0.1-0.1,0.2-0.1,0.3-0.2     c0.1,0,0.2-0.1,0.3-0.1c0.4-0.1,0.8-0.2,1.3-0.3c0.4-0.1,0.8-0.2,1.2-0.3c0.6-0.1,1.2-0.3,1.8-0.4c0.5-0.1,1-0.2,1.4-0.3     c0.4-0.1,0.9-0.2,1.3-0.4c0.1,0,0.1,0,0.2-0.1c0,0,0,0,0,0c0.1,0,0.1-0.1,0.1-0.1c0-0.1,0-0.2,0.1-0.4c0-0.1,0-0.3,0-0.5     c0-0.1,0-0.1,0-0.2c0-0.1-0.1-0.1-0.1-0.2c-0.1-0.1-0.1-0.2-0.2-0.3v0c0,0,0,0,0,0c0.1,0,0.2,0.1,0.2,0.1     c0.1,0.1,0.1,0.1,0.2,0.2s0.1,0.2,0.2,0.3c0.1,0.2,0.2,0.4,0.3,0.7s0.2,0.5,0.3,0.7c0.1,0.2,0.2,0.4,0.4,0.6     c0.1,0.1,0.2,0.2,0.3,0.3c0,0,0.1,0.1,0.1,0.1c0.1,0.1,0.3,0.1,0.4,0.1c0.1,0,0.2,0,0.3-0.1c0.1-0.1,0.2-0.1,0.3-0.2     c0.4-0.2,0.9-0.4,1.3-0.6c0.5-0.2,1-0.4,1.5-0.6c0.5-0.2,1-0.4,1.6-0.6c0.4-0.2,0.8-0.3,1.2-0.5     C186.9,316.8,186.9,316.8,187,316.8C186.9,316.8,187,316.8,187,316.8L187,316.8z"></path>
			
				<radialGradient id="SVGID_9_" cx="147.062" cy="413.7443" r="48.357" gradientTransform="matrix(1 0 0 1 0 -71.9988)" gradientUnits="userSpaceOnUse">
				<stop offset="0" style="stop-color:#EEBE47"></stop>
				<stop offset="0.1204" style="stop-color:#F8DB77"></stop>
				<stop offset="0.2097" style="stop-color:#FFEE96"></stop>
				<stop offset="0.4462" style="stop-color:#A2621E"></stop>
				<stop offset="0.6667" style="stop-color:#EEA54C"></stop>
				<stop offset="1" style="stop-color:#EEBE47"></stop>
			</radialGradient>
			<path class="st10" d="M196.5,308.1c0,0,0.1,0,0.1,0c0,0,0.1,0,0.1,0c0,0,0.1-0.1,0-0.1c0,0,0,0-0.1,0c-0.1,0-0.1-0.1-0.2-0.1     c-0.1-0.1-0.3-0.1-0.4-0.2c-0.4-0.2-0.8-0.3-1.3-0.4c-0.1,0-0.2,0-0.2-0.1c-0.2,0-0.5-0.1-0.7-0.3c-0.1-0.1-0.3-0.2-0.4-0.3     c-0.1-0.1-0.2-0.2-0.3-0.3c-0.1-0.1-0.2-0.1-0.2-0.2c-0.1-0.1-0.2-0.2-0.3-0.2c-0.1-0.1-0.3-0.1-0.4-0.2     c-0.1-0.1-0.3-0.1-0.4-0.2c-0.1,0-0.2-0.1-0.3-0.1c-0.1,0-0.2,0-0.4,0c-0.2,0-0.3,0-0.5,0c-0.1,0-0.2,0-0.3-0.1     c-0.1,0-0.2-0.1-0.3-0.2c-0.1-0.1-0.1-0.1-0.2-0.2c-0.1-0.1-0.2-0.2-0.3-0.3c-0.2-0.2-0.4-0.3-0.5-0.5c-0.3-0.2-0.6-0.4-0.9-0.6     c-0.7-0.4-1.5-0.7-2.3-0.9c-0.4-0.1-0.8-0.2-1.1-0.3c-0.2,0-0.4-0.1-0.5-0.1c-0.2,0-0.4,0-0.6-0.1c-0.6-0.1-1.1-0.3-1.5-0.7     c-0.2-0.2-0.4-0.4-0.6-0.6c0,0-0.1-0.1-0.1-0.2c0,0,0-0.1,0-0.1c0.1-0.1,0.1-0.1,0.2,0c0,0,0.1,0.1,0.1,0.1     c0.1,0.2,0.3,0.3,0.4,0.4c0.2,0.2,0.5,0.3,0.8,0.4c0.1,0,0.3,0,0.5,0.1c0.3,0,0.5,0,0.8,0c0.2,0,0.4,0,0.6,0c0.2,0,0.4,0,0.5,0     c0.1,0,0.3,0,0.4,0.1c0.3,0,0.6,0.1,0.9,0.2c0.4,0.1,0.9,0.3,1.3,0.5c0.4,0.2,0.7,0.3,1.1,0.5c0.6,0.4,1.3,0.8,1.8,1.3     c0.1,0,0.1,0.1,0.2,0.2c0.2,0.1,0.4,0.3,0.6,0.3c0.1,0,0.3,0.1,0.4,0.1c0.1,0,0.2,0.1,0.3,0.1c0.1,0.1,0.3,0.2,0.4,0.3     c0.3,0.2,0.6,0.4,0.8,0.7c0.1,0.1,0.3,0.2,0.4,0.3c0.1,0.1,0.2,0.2,0.4,0.3c0.2,0.1,0.4,0.2,0.6,0.3c0.2,0.1,0.5,0.2,0.7,0.3     c0.1,0.1,0.3,0.1,0.4,0.2c0.1,0.1,0.2,0.1,0.3,0.2c0.1,0,0.1,0.1,0.1,0.1c0.1,0.1,0.2,0.1,0.3,0.2c0,0,0.1,0,0.1,0     c0.1,0,0.2,0.1,0.2,0.3c0,0.2,0,0.3-0.1,0.5c0,0.1-0.1,0.1-0.1,0.2c0,0-0.1,0.1-0.1,0.1c-0.1,0.1-0.1,0.2-0.1,0.3c0,0,0,0,0,0     c-0.2,0.1-0.5,0.1-0.7,0.1c-0.1,0-0.1,0-0.2,0c-0.1,0-0.3-0.1-0.4-0.2v0h0c0,0,0,0,0,0c0.1,0,0.2,0,0.2,0c0.1,0,0.1,0,0.2,0     c0.2,0,0.4-0.1,0.6-0.2c0,0,0.1,0,0.1-0.1c0,0,0,0,0,0c0,0,0-0.1,0-0.1c0,0,0,0-0.1,0c-0.2-0.1-0.3-0.3-0.3-0.5c0,0,0,0,0-0.1     c0,0,0-0.1,0.1-0.1C196.4,308.1,196.4,308.1,196.5,308.1z"></path>
			
				<radialGradient id="SVGID_10_" cx="147.062" cy="413.7443" r="48.357" gradientTransform="matrix(1 0 0 1 0 -71.9988)" gradientUnits="userSpaceOnUse">
				<stop offset="0" style="stop-color:#EEBE47"></stop>
				<stop offset="0.1204" style="stop-color:#F8DB77"></stop>
				<stop offset="0.2097" style="stop-color:#FFEE96"></stop>
				<stop offset="0.4462" style="stop-color:#A2621E"></stop>
				<stop offset="0.6667" style="stop-color:#EEA54C"></stop>
				<stop offset="1" style="stop-color:#EEBE47"></stop>
			</radialGradient>
			<path class="st11" d="M186.7,315C186.7,315,186.7,315,186.7,315c0.2-0.1,0.4-0.2,0.5-0.2c0.3-0.1,0.5-0.2,0.8-0.3     c0.1,0,0.2-0.1,0.3-0.1c0.1,0,0.3,0,0.5,0c0.1,0,0.3,0,0.4,0.1c0.2,0.1,0.4,0.3,0.5,0.5c0.1,0.2,0.2,0.3,0.2,0.5     c0,0.1,0.1,0.3,0.1,0.5c0,0.2,0,0.4,0,0.6c0,0.2,0,0.4,0,0.6c0,0,0,0,0,0c0,0.2,0,0.4-0.1,0.5c0,0.1,0,0.3,0,0.5c0,0.3,0,0.6,0,1     c0,0.4,0,0.8,0,1.3c0,0.1,0,0.3,0,0.4c0,0.1,0,0.1,0,0.2c0,0.1,0,0.2,0,0.3c0,0,0,0.1,0,0.1c0,0.1,0,0.1,0,0.2     c0,0.2-0.1,0.4-0.3,0.6c-0.1,0-0.1,0.1-0.2,0.1c-0.2,0.1-0.4,0.2-0.6,0.4c-0.2,0.1-0.4,0.3-0.6,0.4c-0.1,0.1-0.1,0.1-0.2,0.2     c-0.1,0.1-0.1,0.1-0.2,0.2c-0.1,0.1-0.1,0.1-0.2,0.1c0,0-0.1,0-0.1,0c0,0-0.1,0-0.1,0c0,0,0-0.1-0.1-0.1c0-0.1-0.1-0.3-0.1-0.5     c0-0.1,0-0.2,0-0.3c0-0.1,0-0.2,0-0.3c0-0.1,0-0.1,0-0.2c0.1-0.1,0.1-0.2,0.3-0.3c0.1,0,0.1,0,0.2-0.1c0.1,0,0.1,0,0.2,0     c0.2,0,0.4-0.1,0.6-0.2c0.1,0,0.2-0.1,0.3-0.2c0.1,0,0.1-0.1,0.2-0.2c0.1-0.1,0.2-0.3,0.2-0.4c0-0.3,0-0.5,0.1-0.8s0-0.5,0.1-0.8     c0-0.3,0-0.5,0.1-0.8c0-0.2,0-0.5,0.1-0.7c0-0.2,0-0.4,0.1-0.6c0-0.1,0-0.2,0-0.3c0-0.2,0-0.3,0-0.5c0-0.1,0-0.3,0-0.5     c0-0.1,0-0.1,0-0.2c0-0.1,0-0.2-0.1-0.3c0-0.1,0-0.1-0.1-0.2c-0.1-0.2-0.2-0.3-0.4-0.4c-0.1-0.1-0.3-0.1-0.4-0.1     c-0.2,0-0.3,0-0.5,0s-0.3,0-0.5,0.1c-0.3,0.1-0.6,0.2-0.9,0.3C186.8,315,186.7,315,186.7,315L186.7,315z"></path>
			
				<radialGradient id="SVGID_11_" cx="147.062" cy="413.7443" r="48.357" gradientTransform="matrix(1 0 0 1 0 -71.9988)" gradientUnits="userSpaceOnUse">
				<stop offset="0" style="stop-color:#EEBE47"></stop>
				<stop offset="0.1204" style="stop-color:#F8DB77"></stop>
				<stop offset="0.2097" style="stop-color:#FFEE96"></stop>
				<stop offset="0.4462" style="stop-color:#A2621E"></stop>
				<stop offset="0.6667" style="stop-color:#EEA54C"></stop>
				<stop offset="1" style="stop-color:#EEBE47"></stop>
			</radialGradient>
			<path class="st12" d="M185.9,315.1C185.9,315.1,186,315.1,185.9,315.1c0.1-0.1,0.2-0.2,0.3-0.3c0.1-0.1,0.3-0.3,0.4-0.4     c0.2-0.2,0.3-0.3,0.4-0.5c0.1-0.2,0.3-0.4,0.4-0.6c0.1-0.2,0.2-0.4,0.3-0.5c0.1-0.2,0.3-0.4,0.5-0.6c0.4-0.4,0.8-0.7,1.2-1     c0.2-0.1,0.4-0.3,0.6-0.5c0.1-0.1,0.2-0.1,0.2-0.2c0.1,0,0.1-0.1,0.1-0.1c0,0,0,0,0,0c-0.1-0.2-0.2-0.4-0.2-0.6     c0-0.2-0.1-0.3-0.1-0.5c0,0,0,0,0,0c0,0,0,0,0,0h0c0,0,0,0,0,0c0.1,0.3,0.3,0.5,0.6,0.7c0.1,0.1,0.3,0.1,0.4,0.2     c0.1,0,0.2,0,0.3,0c0.2,0,0.4,0,0.6,0c0.1,0,0.2,0,0.3,0c0.1,0,0.1,0,0.2,0c0.2,0,0.3,0,0.5,0c0.4,0,0.7-0.1,1.1-0.2     c0.1,0,0.2-0.1,0.3-0.1c0.1,0,0.1,0,0.2,0c0.1,0,0.1,0.1,0.2,0.1c0.2,0,0.4,0.1,0.5,0c0.1,0,0.1,0,0.2,0c0,0,0.1,0,0.1,0l0,0     c0,0,0,0,0,0c-0.1,0.1-0.3,0.2-0.5,0.2c-0.1,0-0.1,0-0.2,0c0,0-0.1,0-0.1,0c-0.1,0-0.1,0-0.2-0.1c-0.1,0-0.3,0-0.4,0     c0,0,0,0-0.1,0c-0.3,0.1-0.5,0.2-0.8,0.2c-0.2,0-0.4,0.1-0.5,0.1c0,0-0.1,0-0.1,0c-0.1,0-0.3,0-0.4,0c-0.1,0-0.3,0-0.4,0     c-0.1,0-0.2,0-0.3,0c-0.2,0.1-0.4,0.2-0.6,0.3c-0.5,0.2-1,0.5-1.4,0.8c-0.3,0.2-0.5,0.4-0.7,0.6c-0.5,0.4-0.9,0.9-1.3,1.5     c-0.1,0.1-0.1,0.2-0.2,0.4c-0.1,0.1-0.2,0.3-0.3,0.4c-0.1,0.2-0.3,0.3-0.5,0.4c-0.1,0-0.1,0.1-0.2,0.1     C186.3,315,186.2,315,185.9,315.1C186,315.1,186,315.1,185.9,315.1L185.9,315.1z"></path>
			
				<radialGradient id="SVGID_12_" cx="147.062" cy="413.7443" r="48.357" gradientTransform="matrix(1 0 0 1 0 -71.9988)" gradientUnits="userSpaceOnUse">
				<stop offset="0" style="stop-color:#EEBE47"></stop>
				<stop offset="0.1204" style="stop-color:#F8DB77"></stop>
				<stop offset="0.2097" style="stop-color:#FFEE96"></stop>
				<stop offset="0.4462" style="stop-color:#A2621E"></stop>
				<stop offset="0.6667" style="stop-color:#EEA54C"></stop>
				<stop offset="1" style="stop-color:#EEBE47"></stop>
			</radialGradient>
			<path class="st13" d="M186.3,304.2c0-0.1,0-0.1,0.1-0.2c0,0,0.1,0,0.1,0c0,0,0.1,0,0.1,0c0.1,0,0.1,0,0.2,0.1     c0.1,0,0.1,0.1,0.2,0.1c0.1,0,0.1,0.1,0.2,0.1c0.1,0,0.2,0.1,0.3,0.1c0.1,0,0.2,0,0.4,0.1c0.2,0,0.4,0.1,0.6,0.3     c0.2,0.1,0.4,0.3,0.6,0.4c0.2,0.2,0.4,0.4,0.6,0.6c0.1,0,0.1,0.1,0.1,0.1c0.1,0.1,0.3,0.2,0.4,0.2c0.1,0,0.3,0.1,0.4,0.1     c0.1,0,0.2,0,0.4,0c0.1,0,0.2,0,0.3,0.1c0.1,0,0.2,0.1,0.4,0.1c0.2,0,0.4,0.1,0.5,0.1c0.2,0,0.3,0.1,0.5,0.2     c0.1,0,0.1,0.1,0.2,0.1c0.1,0,0.2,0.1,0.3,0.2c0,0,0.1,0.1,0.1,0.1c0,0,0.1,0.1,0.1,0.1c0.1,0.1,0.3,0.2,0.4,0.3     c0.1,0,0.2,0,0.3,0.1c0.2,0,0.4,0.1,0.6,0.2c0.1,0,0.2,0.1,0.3,0.2c0,0,0,0,0,0v0c0,0,0,0,0,0c-0.1,0-0.2,0-0.3,0     c0,0-0.1,0-0.1,0c-0.1,0-0.3,0-0.4-0.1c-0.1,0-0.1,0-0.2-0.1c-0.3-0.1-0.6-0.2-0.9-0.2c-0.2,0-0.4,0-0.6-0.1c-0.1,0-0.2,0-0.3,0     c-0.1,0-0.2,0-0.4-0.1c0,0-0.1,0-0.1,0c-0.1,0-0.1-0.1-0.2-0.1c0,0-0.1-0.1-0.1-0.2c0-0.1,0-0.1-0.1-0.2c0,0,0-0.1-0.1-0.1     c0-0.1-0.1-0.1-0.2-0.2c0,0-0.1,0-0.1,0c-0.1,0-0.3,0-0.4-0.1c-0.2,0-0.4-0.1-0.6-0.1c-0.1,0-0.1,0-0.2-0.1     c-0.1,0-0.1-0.1-0.2-0.1c-0.1-0.1-0.2-0.3-0.4-0.4s-0.2-0.3-0.4-0.4c-0.2-0.1-0.3-0.3-0.5-0.4c-0.2-0.1-0.4-0.3-0.6-0.3     c-0.1,0-0.2-0.1-0.3-0.1c-0.1,0-0.1,0-0.2-0.1c-0.1,0-0.3-0.1-0.4-0.2c-0.1,0-0.1-0.1-0.2-0.1c0,0-0.1,0-0.1,0c0,0,0,0-0.1,0     C186.4,304.1,186.4,304.2,186.3,304.2c0.1,0.1,0.1,0.1,0.1,0.1c0,0.1,0.1,0.3,0.1,0.4c0.1,0.1,0.1,0.3,0.2,0.4     c0.1,0.1,0.2,0.3,0.3,0.4c0,0,0,0,0,0c0,0,0,0,0,0c0,0,0,0,0,0c-0.2-0.2-0.3-0.4-0.5-0.6c-0.1-0.2-0.2-0.4-0.3-0.5     C186.3,304.3,186.3,304.2,186.3,304.2z"></path>
			
				<radialGradient id="SVGID_13_" cx="147.062" cy="413.7443" r="48.357" gradientTransform="matrix(1 0 0 1 0 -71.9988)" gradientUnits="userSpaceOnUse">
				<stop offset="0" style="stop-color:#EEBE47"></stop>
				<stop offset="0.1204" style="stop-color:#F8DB77"></stop>
				<stop offset="0.2097" style="stop-color:#FFEE96"></stop>
				<stop offset="0.4462" style="stop-color:#A2621E"></stop>
				<stop offset="0.6667" style="stop-color:#EEA54C"></stop>
				<stop offset="1" style="stop-color:#EEBE47"></stop>
			</radialGradient>
			<path class="st14" d="M185.9,315.1C185.9,315.1,185.9,315.1,185.9,315.1L185.9,315.1L185.9,315.1     C185.9,315.1,185.9,315.1,185.9,315.1L185.9,315.1z"></path>
			
				<radialGradient id="SVGID_14_" cx="147.062" cy="413.7443" r="48.357" gradientTransform="matrix(1 0 0 1 0 -71.9988)" gradientUnits="userSpaceOnUse">
				<stop offset="0" style="stop-color:#EEBE47"></stop>
				<stop offset="0.1204" style="stop-color:#F8DB77"></stop>
				<stop offset="0.2097" style="stop-color:#FFEE96"></stop>
				<stop offset="0.4462" style="stop-color:#A2621E"></stop>
				<stop offset="0.6667" style="stop-color:#EEA54C"></stop>
				<stop offset="1" style="stop-color:#EEBE47"></stop>
			</radialGradient>
			<path class="st15" d="M186.6,315.1C186.6,315,186.6,315.1,186.6,315.1L186.6,315.1C186.7,315.1,186.6,315.1,186.6,315.1     C186.6,315.1,186.6,315.1,186.6,315.1L186.6,315.1z"></path>
			
				<radialGradient id="SVGID_15_" cx="147.062" cy="413.7443" r="48.357" gradientTransform="matrix(1 0 0 1 0 -71.9988)" gradientUnits="userSpaceOnUse">
				<stop offset="0" style="stop-color:#EEBE47"></stop>
				<stop offset="0.1204" style="stop-color:#F8DB77"></stop>
				<stop offset="0.2097" style="stop-color:#FFEE96"></stop>
				<stop offset="0.4462" style="stop-color:#A2621E"></stop>
				<stop offset="0.6667" style="stop-color:#EEA54C"></stop>
				<stop offset="1" style="stop-color:#EEBE47"></stop>
			</radialGradient>
			<path class="st16" d="M186.6,315.1C186.6,315.1,186.6,315.1,186.6,315.1L186.6,315.1C186.6,315.1,186.6,315.1,186.6,315.1     C186.6,315.1,186.6,315.1,186.6,315.1z"></path>
			
				<radialGradient id="SVGID_16_" cx="147.0621" cy="413.7443" r="48.357" gradientTransform="matrix(1 0 0 1 0 -71.9988)" gradientUnits="userSpaceOnUse">
				<stop offset="0" style="stop-color:#EEBE47"></stop>
				<stop offset="0.1204" style="stop-color:#F8DB77"></stop>
				<stop offset="0.2097" style="stop-color:#FFEE96"></stop>
				<stop offset="0.4462" style="stop-color:#A2621E"></stop>
				<stop offset="0.6667" style="stop-color:#EEA54C"></stop>
				<stop offset="1" style="stop-color:#EEBE47"></stop>
			</radialGradient>
			<path class="st17" d="M187,316.8C187,316.8,187,316.8,187,316.8C187,316.8,187,316.8,187,316.8L187,316.8     C187,316.8,187,316.8,187,316.8L187,316.8z"></path>
			
				<radialGradient id="SVGID_17_" cx="147.0621" cy="413.7443" r="48.357" gradientTransform="matrix(1 0 0 1 0 -71.9988)" gradientUnits="userSpaceOnUse">
				<stop offset="0" style="stop-color:#EEBE47"></stop>
				<stop offset="0.1204" style="stop-color:#F8DB77"></stop>
				<stop offset="0.2097" style="stop-color:#FFEE96"></stop>
				<stop offset="0.4462" style="stop-color:#A2621E"></stop>
				<stop offset="0.6667" style="stop-color:#EEA54C"></stop>
				<stop offset="1" style="stop-color:#EEBE47"></stop>
			</radialGradient>
			<path class="st18" d="M195.6,309.9C195.6,309.9,195.6,309.9,195.6,309.9L195.6,309.9C195.7,309.9,195.7,309.9,195.6,309.9     C195.6,309.9,195.6,309.9,195.6,309.9L195.6,309.9z"></path>
		</g>
	</g>
	<g>
		<g>
			
				<linearGradient id="SVGID_18_" gradientUnits="userSpaceOnUse" x1="263.2339" y1="369.4384" x2="221.3331" y2="427.4684" gradientTransform="matrix(1 0 0 1 0 -71.9988)">
				<stop offset="0" style="stop-color:#A2621E"></stop>
				<stop offset="0.6667" style="stop-color:#EEA54C"></stop>
				<stop offset="1" style="stop-color:#EEBE47"></stop>
			</linearGradient>
			<polygon class="st19" points="226.3,342 235.8,342 243,327.8    "></polygon>
			
				<linearGradient id="SVGID_19_" gradientUnits="userSpaceOnUse" x1="267.9244" y1="372.8252" x2="226.0236" y2="430.8552" gradientTransform="matrix(1 0 0 1 0 -71.9988)">
				<stop offset="0" style="stop-color:#A2621E"></stop>
				<stop offset="0.6667" style="stop-color:#EEA54C"></stop>
				<stop offset="1" style="stop-color:#EEBE47"></stop>
			</linearGradient>
			<polygon class="st20" points="236.8,342 245.7,342 251.1,313.8    "></polygon>
			
				<linearGradient id="SVGID_20_" gradientUnits="userSpaceOnUse" x1="268.8269" y1="373.4769" x2="226.9261" y2="431.5069" gradientTransform="matrix(1 0 0 1 0 -71.9988)">
				<stop offset="0" style="stop-color:#A2621E"></stop>
				<stop offset="0.6667" style="stop-color:#EEA54C"></stop>
				<stop offset="1" style="stop-color:#EEBE47"></stop>
			</linearGradient>
			<polygon class="st21" points="254.5,300.6 246.6,342 254.5,342    "></polygon>
		</g>
		<g>
			
				<linearGradient id="SVGID_21_" gradientUnits="userSpaceOnUse" x1="263.2339" y1="369.4384" x2="221.3331" y2="427.4684" gradientTransform="matrix(1 0 0 1 0 -71.9988)">
				<stop offset="0" style="stop-color:#A2621E"></stop>
				<stop offset="0.6667" style="stop-color:#EEA54C"></stop>
				<stop offset="1" style="stop-color:#EEBE47"></stop>
			</linearGradient>
			<polygon class="st22" points="226.3,342 235.8,342 243,327.8    "></polygon>
			
				<linearGradient id="SVGID_22_" gradientUnits="userSpaceOnUse" x1="267.9244" y1="372.8252" x2="226.0236" y2="430.8552" gradientTransform="matrix(1 0 0 1 0 -71.9988)">
				<stop offset="0" style="stop-color:#A2621E"></stop>
				<stop offset="0.6667" style="stop-color:#EEA54C"></stop>
				<stop offset="1" style="stop-color:#EEBE47"></stop>
			</linearGradient>
			<polygon class="st23" points="236.8,342 245.7,342 251.1,313.8    "></polygon>
			
				<linearGradient id="SVGID_23_" gradientUnits="userSpaceOnUse" x1="268.8269" y1="373.4769" x2="226.9261" y2="431.5069" gradientTransform="matrix(1 0 0 1 0 -71.9988)">
				<stop offset="0" style="stop-color:#A2621E"></stop>
				<stop offset="0.6667" style="stop-color:#EEA54C"></stop>
				<stop offset="1" style="stop-color:#EEBE47"></stop>
			</linearGradient>
			<polygon class="st24" points="254.5,300.6 246.6,342 254.5,342    "></polygon>
		</g>
	</g>
</g>
<g>
	
		<linearGradient id="SVGID_24_" gradientUnits="userSpaceOnUse" x1="505.4715" y1="234.8443" x2="505.4715" y2="477.1142" gradientTransform="matrix(1 0 0 -1 0 722)">
		<stop offset="0" style="stop-color:#936D2A"></stop>
		<stop offset="0.5" style="stop-color:#E5BC68"></stop>
		<stop offset="1" style="stop-color:#FFEA93"></stop>
	</linearGradient>
	<path class="st25" d="M511.6,236.2l11.7,13.3l15.2-9.1c4.2-2.5,9.7-0.7,11.7,3.8l7,16.3l17.3-3.9c4.8-1.1,9.5,2.3,9.9,7.2l1.6,17.6   l17.6,1.6c4.9,0.4,8.3,5.1,7.2,9.9l-3.9,17.3l16.3,7c4.5,1.9,6.3,7.5,3.8,11.7l-9.1,15.2l13.3,11.7c3.7,3.3,3.7,9,0,12.3   l-13.3,11.7L627,395c2.5,4.2,0.7,9.7-3.8,11.7l-16.3,7l3.9,17.3c1.1,4.8-2.3,9.5-7.2,9.9l-17.6,1.6l-1.6,17.6   c-0.4,4.9-5.1,8.3-9.9,7.2l-17.3-3.9l-7,16.3c-1.9,4.5-7.5,6.3-11.7,3.8l-15.2-9.1l-11.7,13.3c-3.3,3.7-9,3.7-12.3,0l-11.7-13.3   l-15.2,9.1c-4.2,2.5-9.7,0.7-11.7-3.8l-7-16.3l-17.3,3.9c-4.8,1.1-9.5-2.3-9.9-7.2l-1.6-17.6l-17.6-1.6c-4.9-0.4-8.3-5.1-7.2-9.9   l3.9-17.3l-16.3-7c-4.5-1.9-6.3-7.5-3.8-11.7l9.1-15.2l-13.3-11.7c-3.7-3.3-3.7-9,0-12.3l13.3-11.7l-9.1-15.2   c-2.5-4.2-0.7-9.7,3.8-11.7l16.3-7l-3.9-17.3c-1.1-4.8,2.3-9.5,7.2-9.9l17.6-1.6l1.6-17.6c0.4-4.9,5.1-8.3,9.9-7.2l17.3,3.9l7-16.3   c1.9-4.5,7.5-6.3,11.7-3.8l15.2,9.1l11.7-13.3C502.6,232.5,508.4,232.5,511.6,236.2z"></path>
	
		<linearGradient id="SVGID_25_" gradientUnits="userSpaceOnUse" x1="586.3502" y1="268.5648" x2="455.2915" y2="417.5694" gradientTransform="matrix(1 0 0 -1 0 722)">
		<stop offset="0" style="stop-color:#46230D"></stop>
		<stop offset="2.140000e-02" style="stop-color:#44220D"></stop>
		<stop offset="0.289" style="stop-color:#341C0C"></stop>
		<stop offset="0.5912" style="stop-color:#2B180C"></stop>
		<stop offset="1" style="stop-color:#28170C"></stop>
	</linearGradient>
	<path class="st26" d="M512.4,236.6l11.7,13.3l15.2-9.1c4.2-2.5,9.7-0.7,11.7,3.8l7,16.3l17.3-3.9c4.8-1.1,9.5,2.3,9.9,7.2l1.6,17.6   l17.6,1.6c4.9,0.4,8.3,5.1,7.2,9.9l-3.9,17.3l16.3,7c4.5,1.9,6.3,7.5,3.8,11.7l-9.1,15.2l13.3,11.7c3.7,3.3,3.7,9,0,12.3   l-13.3,11.7l9.1,15.2c2.5,4.2,0.7,9.7-3.8,11.7l-16.3,7l3.9,17.3c1.1,4.8-2.3,9.5-7.2,9.9l-17.6,1.6l-1.6,17.6   c-0.4,4.9-5.1,8.3-9.9,7.2l-17.3-3.9l-7,16.3c-1.9,4.5-7.5,6.3-11.7,3.8l-15.2-9.1l-11.7,13.3c-3.3,3.7-9,3.7-12.3,0l-11.7-13.3   l-15.2,9.1c-4.2,2.5-9.7,0.7-11.7-3.8l-7-16.3l-17.3,3.9c-4.8,1.1-9.5-2.3-9.9-7.2l-1.6-17.6l-17.6-1.6c-4.9-0.4-8.3-5.1-7.2-9.9   l3.9-17.3l-16.3-7c-4.5-1.9-6.3-7.5-3.8-11.7l9.1-15.2l-13.3-11.7c-3.7-3.3-3.7-9,0-12.3l13.3-11.7l-9.1-15.2   c-2.5-4.2-0.7-9.7,3.8-11.7l16.3-7l-3.9-17.3c-1.1-4.8,2.3-9.5,7.2-9.9l17.6-1.6l1.6-17.6c0.4-4.9,5.1-8.3,9.9-7.2l17.3,3.9l7-16.3   c1.9-4.5,7.5-6.3,11.7-3.8l15.2,9.1l11.7-13.3C503.3,232.8,509.1,232.8,512.4,236.6z"></path>
	
		<linearGradient id="SVGID_26_" gradientUnits="userSpaceOnUse" x1="585.6176" y1="268.937" x2="454.5589" y2="417.9417" gradientTransform="matrix(1 0 0 -1 0 722)">
		<stop offset="0" style="stop-color:#936D2A"></stop>
		<stop offset="0.5" style="stop-color:#E5BC68"></stop>
		<stop offset="1" style="stop-color:#FFEA93"></stop>
	</linearGradient>
	<path class="st27" d="M511.6,236.2l11.7,13.3l15.2-9.1c4.2-2.5,9.7-0.7,11.7,3.8l7,16.3l17.3-3.9c4.8-1.1,9.5,2.3,9.9,7.2l1.6,17.6   l17.6,1.6c4.9,0.4,8.3,5.1,7.2,9.9l-3.9,17.3l16.3,7c4.5,1.9,6.3,7.5,3.8,11.7l-9.1,15.2l13.3,11.7c3.7,3.3,3.7,9,0,12.3   l-13.3,11.7L627,395c2.5,4.2,0.7,9.7-3.8,11.7l-16.3,7l3.9,17.3c1.1,4.8-2.3,9.5-7.2,9.9l-17.6,1.6l-1.6,17.6   c-0.4,4.9-5.1,8.3-9.9,7.2l-17.3-3.9l-7,16.3c-1.9,4.5-7.5,6.3-11.7,3.8l-15.2-9.1l-11.7,13.3c-3.3,3.7-9,3.7-12.3,0l-11.7-13.3   l-15.2,9.1c-4.2,2.5-9.7,0.7-11.7-3.8l-7-16.3l-17.3,3.9c-4.8,1.1-9.5-2.3-9.9-7.2l-1.6-17.6l-17.6-1.6c-4.9-0.4-8.3-5.1-7.2-9.9   l3.9-17.3l-16.3-7c-4.5-1.9-6.3-7.5-3.8-11.7l9.1-15.2l-13.3-11.7c-3.7-3.3-3.7-9,0-12.3l13.3-11.7l-9.1-15.2   c-2.5-4.2-0.7-9.7,3.8-11.7l16.3-7l-3.9-17.3c-1.1-4.8,2.3-9.5,7.2-9.9l17.6-1.6l1.6-17.6c0.4-4.9,5.1-8.3,9.9-7.2l17.3,3.9l7-16.3   c1.9-4.5,7.5-6.3,11.7-3.8l15.2,9.1l11.7-13.3C502.6,232.5,508.4,232.5,511.6,236.2z"></path>
	
		<linearGradient id="SVGID_27_" gradientUnits="userSpaceOnUse" x1="436.5739" y1="415.2035" x2="541.7399" y2="331.0706" gradientTransform="matrix(1 0 0 -1 0 722)">
		<stop offset="0" style="stop-color:#1F4280"></stop>
		<stop offset="0.7669" style="stop-color:#223F81"></stop>
		<stop offset="1" style="stop-color:#253C81"></stop>
	</linearGradient>
	<circle class="st28" cx="505.5" cy="361.9" r="100.3"></circle>
	
		<linearGradient id="SVGID_28_" gradientUnits="userSpaceOnUse" x1="525.8783" y1="339.6621" x2="448.8359" y2="416.7044" gradientTransform="matrix(1 0 0 -1 0 722)">
		<stop offset="0" style="stop-color:#46230D"></stop>
		<stop offset="2.140000e-02" style="stop-color:#44220D"></stop>
		<stop offset="0.289" style="stop-color:#341C0C"></stop>
		<stop offset="0.5912" style="stop-color:#2B180C"></stop>
		<stop offset="1" style="stop-color:#28170C"></stop>
	</linearGradient>
	<path class="st29" d="M505.8,260.6c-56.2,0-101.7,45.5-101.7,101.7c0,56.2,45.5,101.7,101.7,101.7s101.7-45.5,101.7-101.7   C607.5,306.1,562,260.6,505.8,260.6z M505.8,460.2c-54.1,0-97.9-43.8-97.9-97.9c0-54.1,43.8-97.9,97.9-97.9   c54.1,0,97.9,43.8,97.9,97.9S559.9,460.2,505.8,460.2z"></path>
	
		<linearGradient id="SVGID_29_" gradientUnits="userSpaceOnUse" x1="525.8796" y1="339.6633" x2="448.8372" y2="416.7058" gradientTransform="matrix(1 0 0 -1 0 722)">
		<stop offset="0" style="stop-color:#46230D"></stop>
		<stop offset="2.140000e-02" style="stop-color:#44220D"></stop>
		<stop offset="0.289" style="stop-color:#341C0C"></stop>
		<stop offset="0.5912" style="stop-color:#2B180C"></stop>
		<stop offset="1" style="stop-color:#28170C"></stop>
	</linearGradient>
	<path class="st30" d="M505.8,272.6c-49.5,0-89.7,40.2-89.7,89.7s40.2,89.7,89.7,89.7s89.7-40.2,89.7-89.7S555.4,272.6,505.8,272.6z    M505.8,448.7c-47.7,0-86.4-38.7-86.4-86.4s38.7-86.4,86.4-86.4c47.7,0,86.4,38.7,86.4,86.4C592.2,410,553.5,448.7,505.8,448.7z"></path>
	
		<linearGradient id="SVGID_30_" gradientUnits="userSpaceOnUse" x1="505.4715" y1="260.9836" x2="505.4715" y2="452.6871" gradientTransform="matrix(1 0 0 -1 0 722)">
		<stop offset="0" style="stop-color:#936D2A"></stop>
		<stop offset="4.800000e-02" style="stop-color:#98722E"></stop>
		<stop offset="0.4697" style="stop-color:#C29A4D"></stop>
		<stop offset="0.8013" style="stop-color:#DBB361"></stop>
		<stop offset="1" style="stop-color:#E5BC68"></stop>
	</linearGradient>
	<path class="st31" d="M505.5,260.2c-56.2,0-101.7,45.5-101.7,101.7c0,56.2,45.5,101.7,101.7,101.7s101.7-45.5,101.7-101.7   C607.2,305.8,561.6,260.2,505.5,260.2z M505.5,459.8c-54.1,0-97.9-43.8-97.9-97.9c0-54.1,43.8-97.9,97.9-97.9   c54.1,0,97.9,43.8,97.9,97.9S559.5,459.8,505.5,459.8z"></path>
	
		<linearGradient id="SVGID_31_" gradientUnits="userSpaceOnUse" x1="505.4715" y1="272.6421" x2="505.4715" y2="441.7922" gradientTransform="matrix(1 0 0 -1 0 722)">
		<stop offset="0" style="stop-color:#936D2A"></stop>
		<stop offset="4.800000e-02" style="stop-color:#98722E"></stop>
		<stop offset="0.4697" style="stop-color:#C29A4D"></stop>
		<stop offset="0.8013" style="stop-color:#DBB361"></stop>
		<stop offset="1" style="stop-color:#E5BC68"></stop>
	</linearGradient>
	<path class="st32" d="M505.5,272.2c-49.5,0-89.7,40.2-89.7,89.7s40.2,89.7,89.7,89.7s89.7-40.2,89.7-89.7S555,272.2,505.5,272.2z    M505.5,448.3c-47.7,0-86.4-38.7-86.4-86.4c0-47.7,38.7-86.4,86.4-86.4s86.4,38.7,86.4,86.4S553.2,448.3,505.5,448.3z"></path>
	
		<linearGradient id="SVGID_32_" gradientUnits="userSpaceOnUse" x1="502.0828" y1="238.0793" x2="505.5383" y2="362.4743" gradientTransform="matrix(1 0 0 -1 0 722)">
		<stop offset="0" style="stop-color:#936D2A"></stop>
		<stop offset="0.5" style="stop-color:#E5BC68"></stop>
		<stop offset="1" style="stop-color:#FFEA93"></stop>
	</linearGradient>
	<path class="st33" d="M505.5,284.4c-42.8,0-77.5,34.7-77.5,77.5c0,42.8,34.7,77.5,77.5,77.5c42.8,0,77.5-34.7,77.5-77.5   C583,319.1,548.3,284.4,505.5,284.4z"></path>
	
		<linearGradient id="SVGID_33_" gradientUnits="userSpaceOnUse" x1="445.4069" y1="415.9396" x2="464.4404" y2="397.9939" gradientTransform="matrix(1 0 0 -1 0 722)">
		<stop offset="9.688121e-07" style="stop-color:#1F4397"></stop>
		<stop offset="9.720001e-02" style="stop-color:#1D4B9D"></stop>
		<stop offset="0.3542" style="stop-color:#195CA9"></stop>
		<stop offset="0.6383" style="stop-color:#1766B0"></stop>
		<stop offset="1" style="stop-color:#1669B2"></stop>
	</linearGradient>
	<path class="st34" d="M429,362.6c0-42.8,34.7-77.5,77.5-77.5c15.3,0,29.6,4.5,41.7,12.2c-12.3-8.1-26.9-12.8-42.7-12.8   c-42.8,0-77.5,34.7-77.5,77.5c0,27.4,14.3,51.6,35.8,65.3C442.8,413.4,429,389.6,429,362.6z"></path>
	
		<linearGradient id="SVGID_34_" gradientUnits="userSpaceOnUse" x1="525.8835" y1="339.6674" x2="448.8412" y2="416.7097" gradientTransform="matrix(1 0 0 -1 0 722)">
		<stop offset="0" style="stop-color:#46230D"></stop>
		<stop offset="2.140000e-02" style="stop-color:#44220D"></stop>
		<stop offset="0.289" style="stop-color:#341C0C"></stop>
		<stop offset="0.5912" style="stop-color:#2B180C"></stop>
		<stop offset="1" style="stop-color:#28170C"></stop>
	</linearGradient>
	<path class="st35" d="M505.8,458.4L505.8,458.4L505.8,458.4L505.8,458.4L505.8,458.4L505.8,458.4z M503.7,456.4c0-1.1,0.9-2,2-2   l0,0c1.1,0,2,0.9,2,2l0,0c0,1.1-0.9,2-2,2l0,0C504.7,458.4,503.7,457.5,503.7,456.4z M495.7,457.9c-1.1-0.1-1.9-1.1-1.8-2.2l0,0   c0.1-1.1,1.1-1.9,2.2-1.8l0,0c1.1,0.1,1.9,1.1,1.8,2.2l0,0c-0.1,1.1-1,1.8-2,1.8l0,0C495.9,457.9,495.8,457.9,495.7,457.9z    M513.6,456.1c-0.1-1.1,0.7-2.1,1.8-2.2l0,0c1.1-0.1,2.1,0.7,2.2,1.8l0,0c0.1,1.1-0.7,2.1-1.8,2.2l0,0c-0.1,0-0.1,0-0.2,0l0,0   C514.6,457.9,513.7,457.1,513.6,456.1z M485.8,456.4c-1.1-0.2-1.8-1.3-1.6-2.4l0,0c0.2-1.1,1.3-1.8,2.4-1.6l0,0   c1.1,0.2,1.8,1.3,1.6,2.4l0,0c-0.2,1-1.1,1.6-2,1.6l0,0C486.1,456.4,485.9,456.4,485.8,456.4z M523.4,454.8   c-0.2-1.1,0.5-2.2,1.6-2.4l0,0c1.1-0.2,2.2,0.5,2.4,1.6l0,0c0.2,1.1-0.5,2.2-1.6,2.4l0,0c-0.2,0-0.3,0.1-0.4,0.1l0,0   C524.4,456.4,523.6,455.7,523.4,454.8z M476,453.8c-1.1-0.3-1.7-1.5-1.3-2.6l0,0c0.3-1.1,1.5-1.7,2.6-1.3l0,0   c1.1,0.3,1.7,1.5,1.3,2.6l0,0c-0.3,0.9-1.1,1.4-1.9,1.4l0,0C476.5,453.9,476.3,453.8,476,453.8z M532.9,452.4   c-0.3-1.1,0.2-2.2,1.3-2.6v0c1.1-0.3,2.2,0.2,2.6,1.3l0,0c0.3,1.1-0.2,2.2-1.3,2.6l0,0l0,0l0,0c-0.2,0.1-0.4,0.1-0.6,0.1l0,0   C534,453.8,533.2,453.3,532.9,452.4z M466.6,450.2c-1-0.5-1.5-1.7-1-2.7l0,0c0.5-1,1.7-1.5,2.7-1l0,0c1,0.5,1.5,1.7,1,2.7l0,0   c-0.3,0.8-1.1,1.2-1.9,1.2l0,0C467.2,450.3,466.9,450.3,466.6,450.2z M542.2,449.1c-0.5-1,0-2.2,1-2.7l0,0c1-0.5,2.2,0,2.7,1l0,0   c0.5,1,0,2.2-1,2.7l0,0c-0.3,0.1-0.6,0.2-0.8,0.2l0,0C543.3,450.3,542.6,449.8,542.2,449.1z M457.7,445.6c-1-0.6-1.3-1.8-0.7-2.8   l0,0c0.6-1,1.8-1.3,2.8-0.7l0,0c1,0.6,1.3,1.8,0.7,2.8l0,0c-0.4,0.7-1.1,1-1.8,1l0,0C458.3,445.9,458,445.8,457.7,445.6z    M551.1,444.8c-0.6-1-0.2-2.2,0.7-2.8l0,0c1-0.6,2.2-0.2,2.8,0.7l0,0c0.6,1,0.2,2.2-0.7,2.8l0,0c-0.3,0.2-0.7,0.3-1,0.3l0,0   C552.2,445.8,551.5,445.4,551.1,444.8z M449.2,440.1c-0.9-0.7-1.1-1.9-0.5-2.9l0,0c0.7-0.9,1.9-1.1,2.9-0.4l0,0   c0.9,0.7,1.1,1.9,0.5,2.9l0,0c-0.4,0.5-1,0.8-1.7,0.8l0,0C450,440.5,449.6,440.4,449.2,440.1z M559.5,439.6   c-0.7-0.9-0.5-2.2,0.4-2.9l0,0c0.9-0.7,2.2-0.5,2.9,0.4l0,0c0.7,0.9,0.5,2.2-0.4,2.9l0,0c-0.4,0.3-0.8,0.4-1.2,0.4l0,0   C560.5,440.4,559.9,440.1,559.5,439.6z M441.4,433.7c-0.8-0.7-0.9-2-0.2-2.9l0,0c0.7-0.8,2-0.9,2.9-0.2l0,0c0.8,0.8,0.9,2,0.2,2.9   l0,0c-0.4,0.4-1,0.7-1.5,0.7l0,0C442.2,434.3,441.8,434.1,441.4,433.7z M567.3,433.5c-0.8-0.8-0.7-2.1,0.2-2.9l0,0   c0.8-0.7,2.1-0.7,2.9,0.2l0,0c0.8,0.8,0.7,2.1-0.2,2.9l0,0c-0.4,0.4-0.9,0.5-1.4,0.5l0,0C568.2,434.2,567.7,434,567.3,433.5z    M434.2,426.6c-0.8-0.8-0.7-2.1,0.2-2.9l0,0c0.8-0.7,2.1-0.7,2.9,0.2l0,0c0.8,0.8,0.7,2.1-0.2,2.9l0,0c-0.4,0.3-0.9,0.5-1.4,0.5   l0,0C435.2,427.3,434.7,427.1,434.2,426.6z M574.4,426.7c-0.8-0.8-0.9-2-0.2-2.9v0c0.8-0.8,2-0.9,2.9-0.2l0,0   c0.8,0.7,0.9,2,0.2,2.9l0,0l0,0l0,0c-0.4,0.4-1,0.7-1.5,0.7l0,0C575.3,427.2,574.8,427.1,574.4,426.7z M427.9,418.8L427.9,418.8   L427.9,418.8c-0.7-0.9-0.5-2.2,0.4-2.9l0,0c0.9-0.7,2.2-0.5,2.9,0.4l0,0c0.7,0.9,0.5,2.2-0.4,2.9l0,0c-0.4,0.3-0.8,0.4-1.2,0.4l0,0   C428.9,419.7,428.3,419.4,427.9,418.8z M580.8,419.2c-0.9-0.7-1.1-1.9-0.4-2.9l0,0c0.7-0.9,1.9-1.1,2.9-0.4l0,0   c0.9,0.7,1.1,1.9,0.4,2.9l0,0c-0.4,0.6-1,0.8-1.6,0.8l0,0C581.5,419.6,581.1,419.5,580.8,419.2z M422.4,410.4   c-0.6-1-0.2-2.2,0.7-2.8l0,0c1-0.6,2.2-0.2,2.8,0.7l0,0c0.6,1,0.2,2.2-0.7,2.8l0,0c-0.3,0.2-0.7,0.3-1,0.3l0,0   C423.5,411.4,422.8,411,422.4,410.4z M586.3,411c-1-0.6-1.3-1.8-0.7-2.8l0,0c0.6-1,1.8-1.3,2.8-0.7l0,0c1,0.6,1.3,1.8,0.7,2.8l0,0   c-0.4,0.7-1.1,1-1.8,1l0,0C587,411.3,586.6,411.2,586.3,411z M417.8,401.4L417.8,401.4L417.8,401.4c-0.5-1,0-2.2,1-2.7l0,0   c1-0.5,2.2,0,2.7,1l0,0c0.5,1,0,2.2-1,2.7l0,0c-0.3,0.1-0.5,0.2-0.8,0.2l0,0C418.9,402.6,418.1,402.2,417.8,401.4z M591,402.4   c-1-0.5-1.5-1.7-1-2.7l0,0c0.5-1,1.7-1.5,2.7-1l0,0c1,0.5,1.5,1.7,1,2.7l0,0c-0.3,0.8-1.1,1.2-1.9,1.2l0,0   C591.6,402.5,591.3,402.5,591,402.4z M414.2,392c-0.3-1.1,0.2-2.2,1.3-2.6l0,0c1.1-0.3,2.2,0.2,2.6,1.3l0,0   c0.3,1.1-0.2,2.2-1.3,2.6l0,0c-0.2,0.1-0.4,0.1-0.6,0.1l0,0C415.3,393.4,414.5,392.9,414.2,392z M594.7,393.2   c-1.1-0.3-1.7-1.5-1.3-2.6l0,0c0.3-1.1,1.5-1.7,2.6-1.3l0,0c1.1,0.3,1.7,1.5,1.3,2.6l0,0c-0.3,0.9-1.1,1.4-1.9,1.4l0,0   C595.2,393.3,594.9,393.3,594.7,393.2z M411.6,382.3c-0.2-1.1,0.5-2.2,1.6-2.4l0,0c1.1-0.2,2.2,0.5,2.4,1.6l0,0   c0.2,1.1-0.5,2.2-1.6,2.4l0,0c-0.1,0-0.3,0-0.4,0l0,0C412.6,383.9,411.8,383.2,411.6,382.3z M597.5,383.8c-1.1-0.2-1.8-1.3-1.6-2.4   l0,0c0.2-1.1,1.3-1.8,2.4-1.6l0,0c1.1,0.2,1.8,1.3,1.6,2.4l0,0c-0.2,1-1.1,1.6-2,1.6l0,0C597.8,383.8,597.6,383.8,597.5,383.8z    M410,372.3c-0.1-1.1,0.7-2.1,1.8-2.2l0,0c1.1-0.1,2.1,0.7,2.2,1.8l0,0c0.1,1.1-0.7,2.1-1.8,2.2l0,0c-0.1,0-0.2,0-0.2,0l0,0   C411,374.2,410.1,373.4,410,372.3z M599.2,374c-1.1-0.1-1.9-1.1-1.8-2.2l0,0c0.1-1.1,1.1-1.9,2.2-1.8l0,0c1.1,0.1,1.9,1.1,1.8,2.2   l0,0c-0.1,1-1,1.8-2,1.8l0,0C599.4,374.1,599.3,374.1,599.2,374z M409.5,362.3c0-1.1,0.9-2,2-2l0,0c1.1,0,2,0.9,2,2l0,0   c0,1.1-0.9,2-2,2l0,0C410.4,364.3,409.5,363.4,409.5,362.3z M597.9,362.2C597.9,362.2,597.9,362.1,597.9,362.2L597.9,362.2   c0-0.1,0-0.2,0-0.2l0,0c0-1.1,0.9-2,2-2l0,0c1.1,0,2,0.9,2,2l0,0c0,0,0,0.1,0,0.1l0,0c0,0,0,0.1,0,0.1l0,0c0,1.1-0.9,2-2,2l0,0   C598.8,364.2,597.9,363.3,597.9,362.2z M411.8,354.5c-1.1-0.1-1.9-1.1-1.8-2.2l0,0l0,0l0,0c0.1-1.1,1.1-1.9,2.2-1.8l0,0   c1.1,0.1,1.9,1.1,1.8,2.2l0,0c-0.1,1.1-1,1.8-2,1.8l0,0C411.9,354.5,411.9,354.5,411.8,354.5z M597.4,352.3   c-0.1-1.1,0.7-2.1,1.8-2.2l0,0c1.1-0.1,2.1,0.7,2.2,1.8l0,0c0.1,1.1-0.7,2.1-1.8,2.2l0,0c-0.1,0-0.1,0-0.2,0l0,0   C598.4,354.2,597.5,353.4,597.4,352.3z M413.1,344.7c-1.1-0.2-1.8-1.3-1.6-2.4l0,0l0,0l0,0c0.2-1.1,1.3-1.8,2.4-1.6l0,0   c1.1,0.2,1.8,1.3,1.6,2.4l0,0c-0.2,1-1.1,1.6-2,1.6l0,0C413.4,344.7,413.2,344.7,413.1,344.7z M595.9,342.8   c-0.2-1.1,0.5-2.2,1.6-2.4l0,0c1.1-0.2,2.2,0.5,2.4,1.6l0,0c0.2,1.1-0.5,2.2-1.6,2.4l0,0c-0.2,0-0.3,0-0.4,0l0,0   C596.9,344.4,596.1,343.8,595.9,342.8z M415.4,335.1c-1.1-0.3-1.7-1.5-1.3-2.6l0,0c0.3-1.1,1.5-1.7,2.6-1.3l0,0   c1.1,0.3,1.7,1.5,1.3,2.6l0,0c-0.3,0.9-1.1,1.4-1.9,1.4l0,0C415.9,335.2,415.7,335.2,415.4,335.1z M593.4,333.5L593.4,333.5   c-0.3-1.1,0.2-2.2,1.3-2.6l0,0c1.1-0.3,2.2,0.2,2.6,1.3l0,0c0.3,1.1-0.2,2.2-1.3,2.6l0,0c-0.2,0.1-0.4,0.1-0.6,0.1l0,0   C594.4,334.9,593.6,334.4,593.4,333.5z M418.8,325.8c-1-0.5-1.5-1.7-1-2.7l0,0c0.5-1,1.7-1.5,2.7-1l0,0c1,0.5,1.5,1.7,1,2.7l0,0   c-0.3,0.8-1.1,1.2-1.9,1.2l0,0C419.3,326,419,325.9,418.8,325.8z M589.9,324.5c-0.5-1,0-2.2,1-2.7l0,0c1-0.5,2.2,0,2.7,1l0,0   c0.5,1,0,2.2-1,2.7l0,0c-0.3,0.1-0.6,0.2-0.8,0.2l0,0C591,325.7,590.2,325.3,589.9,324.5z M423,316.9c-1-0.6-1.3-1.8-0.7-2.8l0,0   l0,0l0,0c0.6-1,1.8-1.3,2.8-0.7l0,0c1,0.6,1.3,1.8,0.7,2.8l0,0c-0.4,0.7-1.1,1-1.8,1l0,0C423.7,317.2,423.4,317.1,423,316.9z    M585.5,315.9c-0.6-1-0.2-2.2,0.7-2.8l0,0c1-0.6,2.2-0.2,2.8,0.7l0,0l0,0l0,0c0.6,1,0.2,2.2-0.7,2.8l0,0c-0.3,0.2-0.7,0.3-1,0.3   l0,0C586.5,316.9,585.8,316.6,585.5,315.9z M428.2,308.5c-0.9-0.7-1.1-1.9-0.5-2.9l0,0l0,0l0,0c0.7-0.9,1.9-1.1,2.9-0.5l0,0   c0.9,0.7,1.1,1.9,0.5,2.9l0,0c-0.4,0.5-1,0.8-1.7,0.8l0,0C429,308.9,428.6,308.8,428.2,308.5z M580.2,307.9   c-0.7-0.9-0.5-2.2,0.4-2.9l0,0c0.9-0.7,2.2-0.5,2.9,0.4l0,0c0.7,0.9,0.5,2.2-0.4,2.9l0,0c-0.4,0.3-0.8,0.4-1.2,0.4l0,0   C581.2,308.7,580.6,308.4,580.2,307.9z M434.3,300.7c-0.8-0.8-0.9-2-0.2-2.9l0,0c0.7-0.8,2-0.9,2.9-0.2l0,0c0.8,0.7,0.9,2,0.2,2.9   l0,0c-0.4,0.4-1,0.7-1.5,0.7l0,0C435.1,301.3,434.7,301.1,434.3,300.7z M574.1,300.4c-0.7-0.8-0.7-2.1,0.2-2.9l0,0   c0.8-0.8,2.1-0.7,2.9,0.2l0,0c0.8,0.8,0.7,2.1-0.1,2.9l0,0c-0.4,0.3-0.9,0.5-1.4,0.5l0,0C575.1,301,574.5,300.8,574.1,300.4z    M441.1,293.6c-0.8-0.8-0.7-2.1,0.2-2.9l0,0c0.8-0.7,2.1-0.7,2.9,0.2l0,0c0.7,0.8,0.7,2.1-0.2,2.9l0,0c-0.4,0.4-0.9,0.5-1.4,0.5   l0,0C442,294.3,441.5,294.1,441.1,293.6z M567.3,293.6c-0.8-0.7-0.9-2-0.2-2.9l0,0c0.7-0.8,2-0.9,2.9-0.2l0,0   c0.8,0.8,0.9,2,0.2,2.9l0,0c-0.4,0.4-1,0.7-1.5,0.7l0,0C568.1,294.1,567.7,293.9,567.3,293.6z M448.6,287.2   c-0.7-0.9-0.5-2.2,0.4-2.9l0,0c0.9-0.7,2.2-0.5,2.9,0.4l0,0c0.7,0.9,0.5,2.2-0.4,2.9l0,0c-0.4,0.3-0.8,0.4-1.2,0.4l0,0   C449.6,288.1,449,287.8,448.6,287.2z M559.8,287.5c-0.9-0.7-1.1-1.9-0.4-2.9l0,0c0.7-0.9,1.9-1.1,2.9-0.5l0,0   c0.9,0.7,1.1,1.9,0.5,2.9l0,0c-0.4,0.6-1,0.8-1.7,0.8l0,0C560.5,287.9,560.1,287.8,559.8,287.5z M456.7,281.6   c-0.6-1-0.2-2.2,0.7-2.8l0,0c1-0.6,2.2-0.2,2.8,0.7l0,0c0.6,1,0.2,2.2-0.7,2.8l0,0c-0.3,0.2-0.7,0.3-1,0.3l0,0   C457.8,282.7,457.1,282.3,456.7,281.6z M551.7,282.2c-1-0.6-1.3-1.8-0.7-2.8l0,0c0.6-1,1.8-1.3,2.8-0.7l0,0c1,0.6,1.3,1.8,0.7,2.8   l0,0c-0.4,0.7-1.1,1-1.8,1l0,0C552.3,282.5,552,282.4,551.7,282.2z M465.4,277c-0.5-1,0-2.2,1-2.7l0,0c1-0.5,2.2,0,2.7,1l0,0   c0.5,1,0,2.2-1,2.7l0,0c-0.3,0.1-0.6,0.2-0.8,0.2l0,0C466.5,278.2,465.7,277.7,465.4,277z M543.1,277.9c-1-0.5-1.5-1.7-1-2.7l0,0   c0.5-1,1.7-1.5,2.7-1l0,0c1,0.5,1.5,1.7,1,2.7l0,0c-0.3,0.8-1.1,1.2-1.9,1.2l0,0C543.6,278.1,543.3,278,543.1,277.9z M474.5,273.2   c-0.3-1.1,0.2-2.2,1.3-2.6l0,0l0,0l0,0c1.1-0.3,2.2,0.2,2.6,1.3l0,0c0.3,1.1-0.2,2.2-1.3,2.6l0,0c-0.2,0.1-0.4,0.1-0.6,0.1l0,0   C475.6,274.6,474.8,274.1,474.5,273.2z M534.1,274.4c-1.1-0.3-1.7-1.5-1.3-2.6l0,0c0.3-1.1,1.5-1.7,2.6-1.3l0,0   c1.1,0.3,1.7,1.5,1.3,2.6l0,0c-0.3,0.9-1.1,1.4-1.9,1.4l0,0C534.5,274.5,534.3,274.5,534.1,274.4z M484,270.5   c-0.2-1.1,0.5-2.2,1.6-2.4l0,0c1.1-0.2,2.2,0.5,2.4,1.6l0,0c0.2,1.1-0.5,2.2-1.6,2.4l0,0c-0.2,0-0.3,0.1-0.4,0.1l0,0   C485,272.1,484.2,271.4,484,270.5z M524.7,272c-1.1-0.2-1.8-1.3-1.6-2.4l0,0c0.2-1.1,1.3-1.8,2.4-1.6l0,0c1.1,0.2,1.8,1.3,1.6,2.4   l0,0c-0.2,1-1.1,1.6-2,1.6l0,0C525,272,524.9,272,524.7,272z M493.7,268.7c-0.1-1.1,0.7-2.1,1.8-2.2l0,0c1.1-0.1,2.1,0.7,2.2,1.8   l0,0c0.1,1.1-0.7,2.1-1.8,2.2l0,0c-0.1,0-0.2,0-0.2,0l0,0C494.7,270.5,493.8,269.7,493.7,268.7z M515.2,270.5   c-1.1-0.1-1.9-1.1-1.8-2.2l0,0c0.1-1.1,1.1-1.9,2.2-1.8l0,0l0,0l0,0c1.1,0.1,1.9,1.1,1.8,2.2l0,0c-0.1,1.1-1,1.8-2,1.8l0,0   C515.3,270.5,515.3,270.5,515.2,270.5z M505.6,270L505.6,270L505.6,270L505.6,270L505.6,270z M503.5,268c0-1.1,0.9-2,2-2l0,0   c0,0,0,0,0,0l0,0c1.1,0,2,0.9,2,2l0,0c0,1.1-0.9,2-2,2l0,0C504.4,270,503.5,269.1,503.5,268z"></path>
	
		<linearGradient id="SVGID_35_" gradientUnits="userSpaceOnUse" x1="567.2825" y1="281.1047" x2="446.964" y2="434.868" gradientTransform="matrix(1 0 0 -1 0 722)">
		<stop offset="0" style="stop-color:#936D2A"></stop>
		<stop offset="4.800000e-02" style="stop-color:#98722E"></stop>
		<stop offset="0.4697" style="stop-color:#C29A4D"></stop>
		<stop offset="0.8013" style="stop-color:#DBB361"></stop>
		<stop offset="1" style="stop-color:#E5BC68"></stop>
	</linearGradient>
	<path class="st36" d="M505.5,458.2L505.5,458.2L505.5,458.2L505.5,458.2L505.5,458.2L505.5,458.2z M503.5,456.1c0-1.1,0.9-2,2-2   l0,0c1.1,0,2,0.9,2,2l0,0c0,1.1-0.9,2-2,2l0,0C504.4,458.2,503.5,457.3,503.5,456.1z M495.5,457.7c-1.1-0.1-1.9-1.1-1.8-2.2l0,0   c0.1-1.1,1.1-1.9,2.2-1.8l0,0c1.1,0.1,1.9,1.1,1.8,2.2l0,0c-0.1,1.1-1,1.8-2,1.8l0,0C495.6,457.7,495.5,457.7,495.5,457.7z    M513.3,455.8c-0.1-1.1,0.7-2.1,1.8-2.2l0,0c1.1-0.1,2.1,0.7,2.2,1.8l0,0c0.1,1.1-0.7,2.1-1.8,2.2l0,0c-0.1,0-0.1,0-0.2,0l0,0   C514.3,457.7,513.4,456.9,513.3,455.8z M485.5,456.1c-1.1-0.2-1.8-1.3-1.6-2.4l0,0c0.2-1.1,1.3-1.8,2.4-1.6l0,0   c1.1,0.2,1.8,1.3,1.6,2.4l0,0c-0.2,1-1.1,1.6-2,1.6l0,0C485.8,456.1,485.7,456.1,485.5,456.1z M523.1,454.5   c-0.2-1.1,0.5-2.2,1.6-2.4l0,0c1.1-0.2,2.2,0.5,2.4,1.6l0,0c0.2,1.1-0.5,2.2-1.6,2.4l0,0c-0.2,0-0.3,0.1-0.4,0.1l0,0   C524.2,456.1,523.3,455.5,523.1,454.5z M475.8,453.5c-1.1-0.3-1.7-1.5-1.3-2.6l0,0c0.3-1.1,1.5-1.7,2.6-1.3l0,0   c1.1,0.3,1.7,1.5,1.3,2.6l0,0c-0.3,0.9-1.1,1.4-1.9,1.4l0,0C476.2,453.6,476,453.6,475.8,453.5z M532.7,452.2   c-0.3-1.1,0.2-2.2,1.3-2.6v0c1.1-0.3,2.2,0.2,2.6,1.3l0,0c0.3,1.1-0.2,2.2-1.3,2.6l0,0l0,0l0,0c-0.2,0.1-0.4,0.1-0.6,0.1l0,0   C533.8,453.6,533,453,532.7,452.2z M466.4,449.9c-1-0.5-1.5-1.7-1-2.7l0,0c0.5-1,1.7-1.5,2.7-1l0,0c1,0.5,1.5,1.7,1,2.7l0,0   c-0.3,0.8-1.1,1.2-1.9,1.2l0,0C466.9,450.1,466.6,450,466.4,449.9z M542,448.8c-0.5-1,0-2.2,1-2.7l0,0c1-0.5,2.2,0,2.7,1l0,0   c0.5,1,0,2.2-1,2.7l0,0c-0.3,0.1-0.6,0.2-0.8,0.2l0,0C543.1,450,542.3,449.6,542,448.8z M457.4,445.3c-1-0.6-1.3-1.8-0.7-2.8l0,0   c0.6-1,1.8-1.3,2.8-0.7l0,0c1,0.6,1.3,1.8,0.7,2.8l0,0c-0.4,0.7-1.1,1-1.8,1l0,0C458.1,445.6,457.7,445.5,457.4,445.3z    M550.8,444.5c-0.6-1-0.2-2.2,0.7-2.8l0,0c1-0.6,2.2-0.2,2.8,0.7l0,0c0.6,1,0.2,2.2-0.7,2.8l0,0c-0.3,0.2-0.7,0.3-1,0.3l0,0   C551.9,445.6,551.2,445.2,550.8,444.5z M448.9,439.8c-0.9-0.7-1.1-1.9-0.5-2.9l0,0c0.7-0.9,1.9-1.1,2.9-0.4l0,0   c0.9,0.7,1.1,1.9,0.5,2.9l0,0c-0.4,0.5-1,0.8-1.7,0.8l0,0C449.7,440.2,449.3,440.1,448.9,439.8z M559.2,439.3   c-0.7-0.9-0.5-2.2,0.4-2.9l0,0c0.9-0.7,2.2-0.5,2.9,0.4l0,0c0.7,0.9,0.5,2.2-0.4,2.9l0,0c-0.4,0.3-0.8,0.4-1.2,0.4l0,0   C560.2,440.2,559.6,439.9,559.2,439.3z M441.1,433.5c-0.8-0.7-0.9-2-0.2-2.9l0,0c0.7-0.8,2-0.9,2.9-0.2l0,0c0.8,0.8,0.9,2,0.2,2.9   l0,0c-0.4,0.4-1,0.7-1.5,0.7l0,0C442,434,441.5,433.8,441.1,433.5z M567,433.3c-0.8-0.8-0.7-2.1,0.2-2.9l0,0   c0.8-0.7,2.1-0.7,2.9,0.2l0,0c0.8,0.8,0.7,2.1-0.2,2.9l0,0c-0.4,0.4-0.9,0.5-1.4,0.5l0,0C568,434,567.4,433.7,567,433.3z    M434,426.4c-0.8-0.8-0.7-2.1,0.2-2.9l0,0c0.8-0.7,2.1-0.7,2.9,0.2l0,0c0.8,0.8,0.7,2.1-0.2,2.9l0,0c-0.4,0.3-0.9,0.5-1.4,0.5l0,0   C434.9,427.1,434.4,426.8,434,426.4z M574.1,426.5c-0.8-0.8-0.9-2-0.2-2.9v0c0.8-0.8,2-0.9,2.9-0.2l0,0c0.8,0.7,0.9,2,0.2,2.9l0,0   l0,0l0,0c-0.4,0.4-1,0.7-1.5,0.7l0,0C575,427,574.5,426.8,574.1,426.5z M427.6,418.6L427.6,418.6L427.6,418.6   c-0.7-0.9-0.5-2.2,0.4-2.9l0,0c0.9-0.7,2.2-0.5,2.9,0.4l0,0c0.7,0.9,0.5,2.2-0.4,2.9l0,0c-0.4,0.3-0.8,0.4-1.2,0.4l0,0   C428.7,419.4,428,419.1,427.6,418.6z M580.5,418.9c-0.9-0.7-1.1-1.9-0.4-2.9l0,0c0.7-0.9,1.9-1.1,2.9-0.4l0,0   c0.9,0.7,1.1,1.9,0.4,2.9l0,0c-0.4,0.6-1,0.8-1.6,0.8l0,0C581.3,419.3,580.9,419.2,580.5,418.9z M422.1,410.1   c-0.6-1-0.2-2.2,0.7-2.8l0,0c1-0.6,2.2-0.2,2.8,0.7l0,0c0.6,1,0.2,2.2-0.7,2.8l0,0c-0.3,0.2-0.7,0.3-1,0.3l0,0   C423.2,411.1,422.5,410.8,422.1,410.1z M586.1,410.8c-1-0.6-1.3-1.8-0.7-2.8l0,0c0.6-1,1.8-1.3,2.8-0.7l0,0c1,0.6,1.3,1.8,0.7,2.8   l0,0c-0.4,0.7-1.1,1-1.8,1l0,0C586.7,411.1,586.4,411,586.1,410.8z M417.5,401.2L417.5,401.2L417.5,401.2c-0.5-1,0-2.2,1-2.7l0,0   c1-0.5,2.2,0,2.7,1l0,0c0.5,1,0,2.2-1,2.7l0,0c-0.3,0.1-0.5,0.2-0.8,0.2l0,0C418.6,402.4,417.9,401.9,417.5,401.2z M590.7,402.1   c-1-0.5-1.5-1.7-1-2.7l0,0c0.5-1,1.7-1.5,2.7-1l0,0c1,0.5,1.5,1.7,1,2.7l0,0c-0.3,0.8-1.1,1.2-1.9,1.2l0,0   C591.3,402.3,591,402.2,590.7,402.1z M413.9,391.8c-0.3-1.1,0.2-2.2,1.3-2.6l0,0c1.1-0.3,2.2,0.2,2.6,1.3l0,0   c0.3,1.1-0.2,2.2-1.3,2.6l0,0c-0.2,0.1-0.4,0.1-0.6,0.1l0,0C415,393.2,414.2,392.6,413.9,391.8z M594.5,393   c-1.1-0.3-1.7-1.5-1.3-2.6l0,0c0.3-1.1,1.5-1.7,2.6-1.3l0,0c1.1,0.3,1.7,1.5,1.3,2.6l0,0c-0.3,0.9-1.1,1.4-1.9,1.4l0,0   C594.9,393.1,594.7,393,594.5,393z M411.3,382c-0.2-1.1,0.5-2.2,1.6-2.4l0,0c1.1-0.2,2.2,0.5,2.4,1.6l0,0c0.2,1.1-0.5,2.2-1.6,2.4   l0,0c-0.1,0-0.3,0-0.4,0l0,0C412.4,383.6,411.5,383,411.3,382z M597.2,383.5c-1.1-0.2-1.8-1.3-1.6-2.4l0,0c0.2-1.1,1.3-1.8,2.4-1.6   l0,0c1.1,0.2,1.8,1.3,1.6,2.4l0,0c-0.2,1-1.1,1.6-2,1.6l0,0C597.5,383.5,597.4,383.5,597.2,383.5z M409.8,372.1   c-0.1-1.1,0.7-2.1,1.8-2.2l0,0c1.1-0.1,2.1,0.7,2.2,1.8l0,0c0.1,1.1-0.7,2.1-1.8,2.2l0,0c-0.1,0-0.2,0-0.2,0l0,0   C410.7,373.9,409.8,373.1,409.8,372.1z M599,373.8c-1.1-0.1-1.9-1.1-1.8-2.2l0,0c0.1-1.1,1.1-1.9,2.2-1.8l0,0   c1.1,0.1,1.9,1.1,1.8,2.2l0,0c-0.1,1-1,1.8-2,1.8l0,0C599.1,373.8,599,373.8,599,373.8z M409.2,362c0-1.1,0.9-2,2-2l0,0   c1.1,0,2,0.9,2,2l0,0c0,1.1-0.9,2-2,2l0,0C410.1,364.1,409.2,363.1,409.2,362z M597.6,361.9C597.6,361.9,597.6,361.9,597.6,361.9   L597.6,361.9c0-0.1,0-0.2,0-0.2l0,0c0-1.1,0.9-2,2-2l0,0c1.1,0,2,0.9,2,2l0,0c0,0,0,0.1,0,0.1l0,0c0,0,0,0.1,0,0.1l0,0   c0,1.1-0.9,2-2,2l0,0C598.6,364,597.6,363.1,597.6,361.9z M411.5,354.2c-1.1-0.1-1.9-1.1-1.8-2.2l0,0l0,0l0,0   c0.1-1.1,1.1-1.9,2.2-1.8l0,0c1.1,0.1,1.9,1.1,1.8,2.2l0,0c-0.1,1.1-1,1.8-2,1.8l0,0C411.7,354.2,411.6,354.2,411.5,354.2z    M597.1,352.1c-0.1-1.1,0.7-2.1,1.8-2.2l0,0c1.1-0.1,2.1,0.7,2.2,1.8l0,0c0.1,1.1-0.7,2.1-1.8,2.2l0,0c-0.1,0-0.1,0-0.2,0l0,0   C598.1,353.9,597.2,353.1,597.1,352.1z M412.9,344.4c-1.1-0.2-1.8-1.3-1.6-2.4l0,0l0,0l0,0c0.2-1.1,1.3-1.8,2.4-1.6l0,0   c1.1,0.2,1.8,1.3,1.6,2.4l0,0c-0.2,1-1.1,1.6-2,1.6l0,0C413.1,344.5,413,344.5,412.9,344.4z M595.6,342.6c-0.2-1.1,0.5-2.2,1.6-2.4   l0,0c1.1-0.2,2.2,0.5,2.4,1.6l0,0c0.2,1.1-0.5,2.2-1.6,2.4l0,0c-0.2,0-0.3,0-0.4,0l0,0C596.7,344.2,595.8,343.5,595.6,342.6z    M415.2,334.8c-1.1-0.3-1.7-1.5-1.3-2.6l0,0c0.3-1.1,1.5-1.7,2.6-1.3l0,0c1.1,0.3,1.7,1.5,1.3,2.6l0,0c-0.3,0.9-1.1,1.4-1.9,1.4   l0,0C415.6,334.9,415.4,334.9,415.2,334.8z M593.1,333.2L593.1,333.2c-0.3-1.1,0.2-2.2,1.3-2.6l0,0c1.1-0.3,2.2,0.2,2.6,1.3l0,0   c0.3,1.1-0.2,2.2-1.3,2.6l0,0c-0.2,0.1-0.4,0.1-0.6,0.1l0,0C594.2,334.6,593.4,334.1,593.1,333.2z M418.5,325.6   c-1-0.5-1.5-1.7-1-2.7l0,0c0.5-1,1.7-1.5,2.7-1l0,0c1,0.5,1.5,1.7,1,2.7l0,0c-0.3,0.8-1.1,1.2-1.9,1.2l0,0   C419.1,325.7,418.8,325.7,418.5,325.6z M589.6,324.2c-0.5-1,0-2.2,1-2.7l0,0c1-0.5,2.2,0,2.7,1l0,0c0.5,1,0,2.2-1,2.7l0,0   c-0.3,0.1-0.6,0.2-0.8,0.2l0,0C590.7,325.5,590,325,589.6,324.2z M422.8,316.7c-1-0.6-1.3-1.8-0.7-2.8l0,0l0,0l0,0   c0.6-1,1.8-1.3,2.8-0.7l0,0c1,0.6,1.3,1.8,0.7,2.8l0,0c-0.4,0.7-1.1,1-1.8,1l0,0C423.5,316.9,423.1,316.9,422.8,316.7z    M585.2,315.7c-0.6-1-0.2-2.2,0.7-2.8l0,0c1-0.6,2.2-0.2,2.8,0.7l0,0l0,0l0,0c0.6,1,0.2,2.2-0.7,2.8l0,0c-0.3,0.2-0.7,0.3-1,0.3   l0,0C586.3,316.7,585.6,316.3,585.2,315.7z M428,308.3c-0.9-0.7-1.1-1.9-0.5-2.9l0,0l0,0l0,0c0.7-0.9,1.9-1.1,2.9-0.5l0,0   c0.9,0.7,1.1,1.9,0.5,2.9l0,0c-0.4,0.5-1,0.8-1.7,0.8l0,0C428.8,308.7,428.3,308.5,428,308.3z M579.9,307.6   c-0.7-0.9-0.5-2.2,0.4-2.9l0,0c0.9-0.7,2.2-0.5,2.9,0.4l0,0c0.7,0.9,0.5,2.2-0.4,2.9l0,0c-0.4,0.3-0.8,0.4-1.2,0.4l0,0   C581,308.4,580.4,308.1,579.9,307.6z M434,300.5c-0.8-0.8-0.9-2-0.2-2.9l0,0c0.7-0.8,2-0.9,2.9-0.2l0,0c0.8,0.7,0.9,2,0.2,2.9l0,0   c-0.4,0.4-1,0.7-1.5,0.7l0,0C434.9,301,434.4,300.8,434,300.5z M573.9,300.1c-0.7-0.8-0.7-2.1,0.2-2.9l0,0c0.8-0.8,2.1-0.7,2.9,0.2   l0,0c0.8,0.8,0.7,2.1-0.1,2.9l0,0c-0.4,0.3-0.9,0.5-1.4,0.5l0,0C574.8,300.8,574.3,300.6,573.9,300.1z M440.8,293.4   c-0.8-0.8-0.7-2.1,0.2-2.9l0,0c0.8-0.7,2.1-0.7,2.9,0.2l0,0c0.7,0.8,0.7,2.1-0.2,2.9l0,0c-0.4,0.4-0.9,0.5-1.4,0.5l0,0   C441.8,294,441.2,293.8,440.8,293.4z M567,293.3c-0.8-0.7-0.9-2-0.2-2.9l0,0c0.7-0.8,2-0.9,2.9-0.2l0,0c0.8,0.8,0.9,2,0.2,2.9l0,0   c-0.4,0.4-1,0.7-1.5,0.7l0,0C567.9,293.8,567.4,293.7,567,293.3z M448.3,287c-0.7-0.9-0.5-2.2,0.4-2.9l0,0c0.9-0.7,2.2-0.5,2.9,0.4   l0,0c0.7,0.9,0.5,2.2-0.4,2.9l0,0c-0.4,0.3-0.8,0.4-1.2,0.4l0,0C449.4,287.8,448.7,287.5,448.3,287z M559.5,287.2   c-0.9-0.7-1.1-1.9-0.4-2.9l0,0c0.7-0.9,1.9-1.1,2.9-0.5l0,0c0.9,0.7,1.1,1.9,0.5,2.9l0,0c-0.4,0.5-1,0.8-1.7,0.8l0,0   C560.3,287.6,559.9,287.5,559.5,287.2z M456.5,281.4c-0.6-1-0.2-2.2,0.7-2.8l0,0c1-0.6,2.2-0.2,2.8,0.7l0,0c0.6,1,0.2,2.2-0.7,2.8   l0,0c-0.3,0.2-0.7,0.3-1,0.3l0,0C457.5,282.4,456.8,282.1,456.5,281.4z M551.4,282c-1-0.6-1.3-1.8-0.7-2.8l0,0   c0.6-1,1.8-1.3,2.8-0.7l0,0c1,0.6,1.3,1.8,0.7,2.8l0,0c-0.4,0.7-1.1,1-1.8,1l0,0C552.1,282.3,551.7,282.2,551.4,282z M465.1,276.7   c-0.5-1,0-2.2,1-2.7l0,0c1-0.5,2.2,0,2.7,1l0,0c0.5,1,0,2.2-1,2.7l0,0c-0.3,0.1-0.6,0.2-0.8,0.2l0,0   C466.2,277.9,465.5,277.5,465.1,276.7z M542.8,277.6c-1-0.5-1.5-1.7-1-2.7l0,0c0.5-1,1.7-1.5,2.7-1l0,0c1,0.5,1.5,1.7,1,2.7l0,0   c-0.3,0.8-1.1,1.2-1.9,1.2l0,0C543.4,277.8,543.1,277.7,542.8,277.6z M474.3,273c-0.3-1.1,0.2-2.2,1.3-2.6l0,0l0,0l0,0   c1.1-0.3,2.2,0.2,2.6,1.3l0,0c0.3,1.1-0.2,2.2-1.3,2.6l0,0c-0.2,0.1-0.4,0.1-0.6,0.1l0,0C475.4,274.4,474.5,273.8,474.3,273z    M533.8,274.2c-1.1-0.3-1.7-1.5-1.3-2.6l0,0c0.3-1.1,1.5-1.7,2.6-1.3l0,0c1.1,0.3,1.7,1.5,1.3,2.6l0,0c-0.3,0.9-1.1,1.4-1.9,1.4   l0,0C534.2,274.3,534,274.2,533.8,274.2z M483.7,270.2c-0.2-1.1,0.5-2.2,1.6-2.4l0,0c1.1-0.2,2.2,0.5,2.4,1.6l0,0   c0.2,1.1-0.5,2.2-1.6,2.4l0,0c-0.2,0-0.3,0.1-0.4,0.1l0,0C484.8,271.8,483.9,271.2,483.7,270.2z M524.5,271.7   c-1.1-0.2-1.8-1.3-1.6-2.4l0,0c0.2-1.1,1.3-1.8,2.4-1.6l0,0c1.1,0.2,1.8,1.3,1.6,2.4l0,0c-0.2,1-1.1,1.6-2,1.6l0,0   C524.8,271.7,524.6,271.7,524.5,271.7z M493.4,268.4c-0.1-1.1,0.7-2.1,1.8-2.2l0,0c1.1-0.1,2.1,0.7,2.2,1.8l0,0   c0.1,1.1-0.7,2.1-1.8,2.2l0,0c-0.1,0-0.2,0-0.2,0l0,0C494.4,270.3,493.5,269.5,493.4,268.4z M514.9,270.2c-1.1-0.1-1.9-1.1-1.8-2.2   l0,0c0.1-1.1,1.1-1.9,2.2-1.8l0,0l0,0l0,0c1.1,0.1,1.9,1.1,1.8,2.2l0,0c-0.1,1.1-1,1.8-2,1.8l0,0   C515.1,270.2,515,270.2,514.9,270.2z M505.3,269.7L505.3,269.7L505.3,269.7L505.3,269.7L505.3,269.7z M503.3,267.7c0-1.1,0.9-2,2-2   l0,0c0,0,0,0,0,0l0,0c1.1,0,2,0.9,2,2l0,0c0,1.1-0.9,2-2,2l0,0C504.2,269.7,503.3,268.8,503.3,267.7z"></path>
	<g>
		<polygon class="st37" points="538.2,401.4 540.7,406.3 546.1,407.1 542.2,410.9 543.1,416.4 538.2,413.8 533.4,416.4 534.3,410.9     530.3,407.1 535.8,406.3   "></polygon>
		<polygon class="st37" points="504,398.1 507.5,405.2 515.3,406.3 509.7,411.9 511,419.6 504,416 497,419.6 498.4,411.9     492.7,406.3 500.5,405.2   "></polygon>
		<polygon class="st37" points="469.6,401.4 472.1,406.3 477.5,407.1 473.6,410.9 474.5,416.4 469.6,413.8 464.8,416.4 465.7,410.9     461.7,407.1 467.2,406.3   "></polygon>
	</g>
	<g>
		<g>
			
				<linearGradient id="SVGID_36_" gradientUnits="userSpaceOnUse" x1="434.3041" y1="346.0983" x2="444.0119" y2="346.0983" gradientTransform="matrix(1 0 0 -1 0 722)">
				<stop offset="0" style="stop-color:#1F4280"></stop>
				<stop offset="0.7669" style="stop-color:#223F81"></stop>
				<stop offset="1" style="stop-color:#253C81"></stop>
			</linearGradient>
			<path class="st38" d="M440.4,381.3c1.1,0,2.2-0.3,3.1-0.9c0.3,0.4,0.5,0.7,0.5,1.1c0,0.4-0.4,0.7-1.2,0.9s-1.8,0.3-3,0.3     c-1.9,0-3.2-0.4-4.1-1.3c-0.9-0.9-1.3-2.5-1.3-4.8c0-2.6,0.5-4.5,1.6-5.7c1-1.2,2.6-1.8,4.6-1.8c1.1,0,2,0.1,2.5,0.3     c0.6,0.2,0.9,0.5,0.9,0.9c0,0.4-0.2,0.7-0.5,1.1c-1.2-0.6-2.3-0.8-3.4-0.8c-1.1,0-1.9,0.4-2.5,1.2c-0.6,0.8-0.8,2.1-0.8,4     c0,2.1,0.3,3.5,0.9,4.4C438.1,380.9,439.1,381.3,440.4,381.3z"></path>
			
				<linearGradient id="SVGID_37_" gradientUnits="userSpaceOnUse" x1="445.8992" y1="345.9806" x2="457.6542" y2="345.9806" gradientTransform="matrix(1 0 0 -1 0 722)">
				<stop offset="0" style="stop-color:#1F4280"></stop>
				<stop offset="0.7669" style="stop-color:#223F81"></stop>
				<stop offset="1" style="stop-color:#253C81"></stop>
			</linearGradient>
			<path class="st39" d="M449.5,381.5h1.4c0.1,0.2,0.1,0.4,0.1,0.6c0,0.2,0,0.3-0.1,0.3s-0.2,0.1-0.3,0.1H446     c-0.1-0.2-0.1-0.4-0.1-0.6c0-0.1,0-0.2,0.1-0.3s0.2-0.1,0.3-0.1h0.9c0.1-0.9,0.1-3.2,0.1-6.9c0-2,0-3.4-0.1-4.3h-1.1     c-0.1-0.2-0.1-0.4-0.1-0.6c0-0.1,0-0.2,0.1-0.3s0.2-0.1,0.3-0.1h4.2c2,0,3.4,0.3,4.2,0.8c0.8,0.5,1.2,1.4,1.2,2.6     c0,1.8-1.1,3-3.2,3.7c0.6,0.2,1.1,0.5,1.5,1c0.4,0.5,0.8,1.2,1.2,2.1c0.4,0.9,0.8,1.5,1,1.7c0.2,0.2,0.6,0.3,1,0.3     c0.1,0.5,0.1,0.8-0.1,0.9c-0.2,0.2-0.6,0.2-1.2,0.2c-0.8,0-1.3-0.1-1.7-0.3c-0.3-0.2-0.7-0.9-1.1-2.1c-0.4-1.2-0.7-2.1-1.2-2.6     c-0.4-0.5-1-0.7-1.8-0.7c-0.4,0-0.8,0-1.2,0.1C449.5,379.3,449.5,380.8,449.5,381.5z M449.4,375.7h0.8c1.1,0,2-0.2,2.5-0.6     c0.6-0.4,0.9-1,0.9-1.8c0-0.9-0.3-1.6-0.8-2c-0.5-0.4-1.3-0.7-2.2-0.7c-0.4,0-0.8,0-1.1,0.1c-0.1,0.6-0.1,1.9-0.1,3.9     C449.4,374.7,449.4,375.7,449.4,375.7z"></path>
			
				<linearGradient id="SVGID_38_" gradientUnits="userSpaceOnUse" x1="458.8817" y1="346.1052" x2="468.8527" y2="346.1052" gradientTransform="matrix(1 0 0 -1 0 722)">
				<stop offset="0" style="stop-color:#1F4280"></stop>
				<stop offset="0.7669" style="stop-color:#223F81"></stop>
				<stop offset="1" style="stop-color:#253C81"></stop>
			</linearGradient>
			<path class="st40" d="M459.3,369.3h8.3c0.4,0,0.6,0.1,0.8,0.2s0.2,0.3,0.2,0.6c0,0.4-0.1,0.8-0.4,1.2c-1.2-0.5-2.9-0.7-5-0.7     h-0.8c0,0.7-0.1,2.2-0.1,4.3h5.1c0.1,0.2,0.1,0.5,0.1,0.8c0,0.2,0,0.3-0.1,0.4s-0.2,0.1-0.4,0.1h-4.7c0,2.8,0,4.5,0.1,5.1h1.4     c2.1,0,3.7-0.2,4.9-0.7c0.2,0.4,0.3,0.7,0.3,1.1c0,0.3-0.1,0.5-0.3,0.6c-0.2,0.1-0.6,0.2-1.1,0.2l-8.4,0     c-0.1-0.2-0.1-0.4-0.1-0.6c0-0.1,0-0.2,0.1-0.3c0.1-0.1,0.2-0.1,0.3-0.1h0.7c0-0.9,0.1-3.2,0.1-6.9c0-2,0-3.4-0.1-4.3h-1     c-0.1-0.2-0.1-0.4-0.1-0.6c0-0.1,0-0.2,0.1-0.3C459.1,369.3,459.2,369.3,459.3,369.3z"></path>
			
				<linearGradient id="SVGID_39_" gradientUnits="userSpaceOnUse" x1="470.5041" y1="346.0914" x2="481.7491" y2="346.0914" gradientTransform="matrix(1 0 0 -1 0 722)">
				<stop offset="0" style="stop-color:#1F4280"></stop>
				<stop offset="0.7669" style="stop-color:#223F81"></stop>
				<stop offset="1" style="stop-color:#253C81"></stop>
			</linearGradient>
			<path class="st41" d="M470.9,369.3h3.9c2.6,0,4.4,0.5,5.4,1.4c1,0.9,1.5,2.5,1.5,4.6c0,2.4-0.5,4.2-1.5,5.4c-1,1.2-2.7,1.8-5,1.8     l-4.6,0c-0.1-0.2-0.1-0.4-0.1-0.6c0-0.1,0-0.2,0.1-0.3c0.1-0.1,0.2-0.1,0.3-0.1h0.7c0-0.9,0.1-3.2,0.1-6.9c0-2,0-3.4-0.1-4.3h-1     c-0.1-0.2-0.1-0.4-0.1-0.6c0-0.1,0-0.2,0.1-0.3C470.7,369.3,470.8,369.3,470.9,369.3z M475.2,370.7c-0.5,0-0.9,0-1.3,0.1     c0,1-0.1,3.4-0.1,7.2c0,1.6,0.1,2.5,0.2,2.8s0.7,0.4,1.8,0.4c1.2,0,2-0.4,2.6-1.1c0.6-0.7,0.9-2,0.9-4c0-2-0.3-3.4-1-4.2     C477.7,371.1,476.6,370.7,475.2,370.7z"></path>
			
				<linearGradient id="SVGID_40_" gradientUnits="userSpaceOnUse" x1="483.8295" y1="346.0844" x2="488.7548" y2="346.0844" gradientTransform="matrix(1 0 0 -1 0 722)">
				<stop offset="0" style="stop-color:#1F4280"></stop>
				<stop offset="0.7669" style="stop-color:#223F81"></stop>
				<stop offset="1" style="stop-color:#253C81"></stop>
			</linearGradient>
			<path class="st42" d="M484.3,369.3h4.4c0.1,0.2,0.1,0.4,0.1,0.6c0,0.2,0,0.3-0.1,0.3s-0.2,0.1-0.3,0.1h-0.9     c0,0.9-0.1,2.4-0.1,4.4c0,3.6,0,5.9,0.1,6.8h1.2c0.1,0.2,0.1,0.4,0.1,0.6c0,0.2,0,0.3-0.1,0.3s-0.2,0.1-0.3,0.1h-4.4     c-0.1-0.2-0.1-0.4-0.1-0.6c0-0.1,0-0.2,0.1-0.3c0.1-0.1,0.2-0.1,0.3-0.1h0.9c0.1-0.9,0.1-3.2,0.1-6.9c0-2,0-3.4-0.1-4.3h-1.2     c-0.1-0.2-0.1-0.4-0.1-0.6c0-0.1,0-0.2,0.1-0.3C484,369.3,484.1,369.3,484.3,369.3z"></path>
			
				<linearGradient id="SVGID_41_" gradientUnits="userSpaceOnUse" x1="489.8218" y1="346.3268" x2="501.7037" y2="346.3268" gradientTransform="matrix(1 0 0 -1 0 722)">
				<stop offset="0" style="stop-color:#1F4280"></stop>
				<stop offset="0.7669" style="stop-color:#223F81"></stop>
				<stop offset="1" style="stop-color:#253C81"></stop>
			</linearGradient>
			<path class="st43" d="M494.5,381.5c0.1-0.9,0.1-3.2,0.1-6.9c0-2,0-3.3-0.1-4.1c-2.3,0.1-3.6,0.1-3.9,0.1c-0.3,0-0.5,0-0.6-0.1     c-0.1-0.1-0.2-0.3-0.2-0.5c0-0.4,0.1-0.8,0.3-1.2c1.1,0.3,2.7,0.4,4.8,0.4h6.1c0.3,0,0.5,0,0.6,0.1c0.1,0.1,0.2,0.3,0.2,0.5     c0,0.5-0.1,0.9-0.4,1.3c-1.1-0.5-2.5-0.7-4.2-0.7h-0.3c-0.1,0.7-0.1,2.1-0.1,4.2c0,3.6,0,5.9,0.1,6.8h1.4     c0.1,0.2,0.1,0.4,0.1,0.6c0,0.2,0,0.3-0.1,0.3s-0.2,0.1-0.3,0.1H493c-0.1-0.2-0.1-0.4-0.1-0.6c0-0.1,0-0.2,0.1-0.3     c0.1-0.1,0.2-0.1,0.3-0.1H494.5L494.5,381.5z"></path>
			
				<linearGradient id="SVGID_42_" gradientUnits="userSpaceOnUse" x1="507.8568" y1="345.9806" x2="519.6119" y2="345.9806" gradientTransform="matrix(1 0 0 -1 0 722)">
				<stop offset="0" style="stop-color:#1F4280"></stop>
				<stop offset="0.7669" style="stop-color:#223F81"></stop>
				<stop offset="1" style="stop-color:#253C81"></stop>
			</linearGradient>
			<path class="st44" d="M511.5,381.5h1.4c0.1,0.2,0.1,0.4,0.1,0.6c0,0.2,0,0.3-0.1,0.3c-0.1,0.1-0.2,0.1-0.3,0.1H508     c-0.1-0.2-0.1-0.4-0.1-0.6c0-0.1,0-0.2,0.1-0.3s0.2-0.1,0.3-0.1h0.9c0.1-0.9,0.1-3.2,0.1-6.9c0-2,0-3.4-0.1-4.3H508     c-0.1-0.2-0.1-0.4-0.1-0.6c0-0.1,0-0.2,0.1-0.3c0.1-0.1,0.2-0.1,0.3-0.1h4.2c2,0,3.4,0.3,4.2,0.8c0.8,0.5,1.2,1.4,1.2,2.6     c0,1.8-1.1,3-3.2,3.7c0.6,0.2,1.1,0.5,1.5,1c0.4,0.5,0.8,1.2,1.2,2.1c0.4,0.9,0.8,1.5,1,1.7c0.2,0.2,0.6,0.3,1,0.3     c0.1,0.5,0.1,0.8,0,0.9c-0.2,0.2-0.6,0.2-1.2,0.2c-0.8,0-1.3-0.1-1.7-0.3c-0.3-0.2-0.7-0.9-1.1-2.1c-0.4-1.2-0.7-2.1-1.2-2.6     c-0.4-0.5-1-0.7-1.8-0.7c-0.4,0-0.8,0-1.2,0.1C511.4,379.3,511.4,380.8,511.5,381.5z M511.4,375.7h0.8c1.1,0,2-0.2,2.6-0.6     c0.6-0.4,0.9-1,0.9-1.8c0-0.9-0.3-1.6-0.8-2c-0.5-0.4-1.3-0.7-2.2-0.7c-0.4,0-0.8,0-1.1,0.1c-0.1,0.6-0.1,1.9-0.1,3.9     L511.4,375.7L511.4,375.7z"></path>
			
				<linearGradient id="SVGID_43_" gradientUnits="userSpaceOnUse" x1="520.0152" y1="346.1675" x2="532.8626" y2="346.1675" gradientTransform="matrix(1 0 0 -1 0 722)">
				<stop offset="0" style="stop-color:#1F4280"></stop>
				<stop offset="0.7669" style="stop-color:#223F81"></stop>
				<stop offset="1" style="stop-color:#253C81"></stop>
			</linearGradient>
			<path class="st45" d="M526.2,369.1c0.7,0,1.1,0,1.2,0.1s0.7,1.9,2,5.4s2,5.9,2.5,6.9h0.9c0.1,0.2,0.1,0.4,0.1,0.6     c0,0.2,0,0.3-0.1,0.3c-0.1,0.1-0.2,0.1-0.3,0.1h-4c-0.1-0.2-0.1-0.4-0.1-0.6c0-0.1,0-0.2,0.1-0.3c0.1-0.1,0.2-0.1,0.3-0.1h0.5     c-0.1-0.6-0.4-1.7-0.9-3.3h-4.4c-0.5,1.6-0.7,2.7-0.8,3.3h0.9c0.1,0.2,0.1,0.4,0.1,0.6c0,0.2,0,0.3-0.1,0.3     c-0.1,0.1-0.2,0.1-0.3,0.1h-3.6c-0.1-0.2-0.1-0.4-0.1-0.6c0-0.1,0-0.2,0.1-0.3c0.1-0.1,0.2-0.1,0.3-0.1h0.6     c0.4-1.2,1.1-3.3,2.1-6.4c1-3.1,1.6-4.8,1.8-5.3C525.2,369.4,525.6,369.1,526.2,369.1z M524.3,377h3.7c-1.2-3.7-1.8-5.6-1.9-5.6     C525.9,371.3,525.4,373.2,524.3,377z"></path>
			
				<linearGradient id="SVGID_44_" gradientUnits="userSpaceOnUse" x1="531.563" y1="346.3268" x2="543.445" y2="346.3268" gradientTransform="matrix(1 0 0 -1 0 722)">
				<stop offset="0" style="stop-color:#1F4280"></stop>
				<stop offset="0.7669" style="stop-color:#223F81"></stop>
				<stop offset="1" style="stop-color:#253C81"></stop>
			</linearGradient>
			<path class="st46" d="M536.2,381.5c0.1-0.9,0.1-3.2,0.1-6.9c0-2,0-3.3-0.1-4.1c-2.3,0.1-3.6,0.1-3.9,0.1c-0.3,0-0.5,0-0.6-0.1     s-0.2-0.3-0.2-0.5c0-0.4,0.1-0.8,0.3-1.2c1.1,0.3,2.7,0.4,4.8,0.4h6.1c0.3,0,0.5,0,0.6,0.1c0.1,0.1,0.2,0.3,0.2,0.5     c0,0.5-0.1,0.9-0.4,1.3c-1.1-0.5-2.5-0.7-4.2-0.7h-0.3c-0.1,0.7-0.1,2.1-0.1,4.2c0,3.6,0,5.9,0.1,6.8h1.4     c0.1,0.2,0.1,0.4,0.1,0.6c0,0.2,0,0.3-0.1,0.3c-0.1,0.1-0.2,0.1-0.3,0.1h-4.8c-0.1-0.2-0.1-0.4-0.1-0.6c0-0.1,0-0.2,0.1-0.3     c0.1-0.1,0.2-0.1,0.3-0.1H536.2L536.2,381.5z"></path>
			
				<linearGradient id="SVGID_45_" gradientUnits="userSpaceOnUse" x1="544.5068" y1="346.0844" x2="549.432" y2="346.0844" gradientTransform="matrix(1 0 0 -1 0 722)">
				<stop offset="0" style="stop-color:#1F4280"></stop>
				<stop offset="0.7669" style="stop-color:#223F81"></stop>
				<stop offset="1" style="stop-color:#253C81"></stop>
			</linearGradient>
			<path class="st47" d="M544.9,369.3h4.4c0.1,0.2,0.1,0.4,0.1,0.6c0,0.2,0,0.3-0.1,0.3c-0.1,0.1-0.2,0.1-0.3,0.1h-0.9     c0,0.9-0.1,2.4-0.1,4.4c0,3.6,0,5.9,0.1,6.8h1.2c0.1,0.2,0.1,0.4,0.1,0.6c0,0.2,0,0.3-0.1,0.3c-0.1,0.1-0.2,0.1-0.3,0.1h-4.4     c-0.1-0.2-0.1-0.4-0.1-0.6c0-0.1,0-0.2,0.1-0.3c0.1-0.1,0.2-0.1,0.3-0.1h0.9c0.1-0.9,0.1-3.2,0.1-6.9c0-2,0-3.4-0.1-4.3h-1.2     c-0.1-0.2-0.1-0.4-0.1-0.6c0-0.1,0-0.2,0.1-0.3C544.7,369.3,544.8,369.3,544.9,369.3z"></path>
			
				<linearGradient id="SVGID_46_" gradientUnits="userSpaceOnUse" x1="551.3715" y1="346.0429" x2="564.0429" y2="346.0429" gradientTransform="matrix(1 0 0 -1 0 722)">
				<stop offset="0" style="stop-color:#1F4280"></stop>
				<stop offset="0.7669" style="stop-color:#223F81"></stop>
				<stop offset="1" style="stop-color:#253C81"></stop>
			</linearGradient>
			<path class="st48" d="M552,369.3h3.1c1,1.9,2,3.6,2.9,5.1c0.9,1.6,1.9,3.4,3,5.5v-5.4c0-2,0-3.4-0.1-4.3h-1     c-0.1-0.2-0.1-0.4-0.1-0.6c0-0.1,0-0.2,0.1-0.3c0.1-0.1,0.2-0.1,0.3-0.1h3.6c0.1,0.2,0.1,0.4,0.1,0.6c0,0.2,0,0.3-0.1,0.3     c-0.1,0.1-0.2,0.1-0.3,0.1h-0.8c0,0.9-0.1,2.4-0.1,4.4v7c0,0.4-0.1,0.6-0.2,0.7c-0.1,0.1-0.4,0.2-0.8,0.2c-0.8,0-1.3,0-1.4-0.1     c-0.1-0.1-0.9-1.3-2.4-3.6c-1.5-2.3-2.7-4.5-3.7-6.6c0,5.2,0,8.3,0.1,9.2h1c0.1,0.2,0.1,0.4,0.1,0.6c0,0.2,0,0.3-0.1,0.3     c-0.1,0.1-0.2,0.1-0.3,0.1h-3.6c-0.1-0.2-0.1-0.4-0.1-0.6c0-0.1,0-0.2,0.1-0.3s0.2-0.1,0.3-0.1h0.8c0-0.9,0.1-3.2,0.1-6.9     c0-2,0-3.4-0.1-4.3h-0.9c-0.1-0.2-0.1-0.4-0.1-0.6c0-0.1,0-0.2,0.1-0.3C551.7,369.3,551.9,369.3,552,369.3z"></path>
			
				<linearGradient id="SVGID_47_" gradientUnits="userSpaceOnUse" x1="566.1385" y1="346.126" x2="576.6357" y2="346.126" gradientTransform="matrix(1 0 0 -1 0 722)">
				<stop offset="0" style="stop-color:#1F4280"></stop>
				<stop offset="0.7669" style="stop-color:#223F81"></stop>
				<stop offset="1" style="stop-color:#253C81"></stop>
			</linearGradient>
			<path class="st49" d="M574.4,380.9c0-1.2,0-2,0-2.5c0-0.4-0.1-0.7-0.1-0.9c-0.1-0.1-0.1-0.2-0.2-0.3c-0.1,0-0.2-0.1-0.4-0.1     c-0.1-0.2-0.1-0.3-0.1-0.5c0-0.2,0.1-0.3,0.2-0.4c0.1-0.1,0.3-0.1,0.5-0.1h1.6c0.3,0,0.5,0.1,0.6,0.2c0.1,0.1,0.2,0.3,0.2,0.7     v2.4c0,0.7,0,1.7,0.1,3c-0.3,0-0.6,0.1-0.9,0.1c-0.1,0-0.3-0.2-0.6-0.7c-1.2,0.6-2.5,0.9-3.7,0.9c-1.8,0-3.2-0.5-4-1.4     c-0.9-0.9-1.3-2.5-1.3-4.8c0-2.5,0.5-4.4,1.6-5.6c1.1-1.2,2.6-1.8,4.7-1.8c1.2,0,2.1,0.1,2.6,0.3c0.6,0.2,0.8,0.5,0.8,0.9     s-0.2,0.8-0.5,1.2c-1.2-0.6-2.4-0.9-3.5-0.9c-1.1,0-1.9,0.4-2.5,1.1c-0.6,0.8-0.9,2.1-0.9,4c0,2.2,0.3,3.6,0.8,4.4     s1.5,1.2,2.8,1.2C572.9,381.3,573.6,381.2,574.4,380.9z"></path>
		</g>
		<g>
			<g>
				<g>
					
						<linearGradient id="SVGID_48_" gradientUnits="userSpaceOnUse" x1="434.3041" y1="368.5675" x2="455.9909" y2="368.5675" gradientTransform="matrix(1 0 0 -1 0 722)">
						<stop offset="0" style="stop-color:#1F4280"></stop>
						<stop offset="0.7669" style="stop-color:#223F81"></stop>
						<stop offset="1" style="stop-color:#253C81"></stop>
					</linearGradient>
					<polygon class="st50" points="434.3,362.7 446.7,362.7 456,344.2      "></polygon>
					
						<linearGradient id="SVGID_49_" gradientUnits="userSpaceOnUse" x1="447.9449" y1="377.666" x2="466.4742" y2="377.666" gradientTransform="matrix(1 0 0 -1 0 722)">
						<stop offset="0" style="stop-color:#1F4280"></stop>
						<stop offset="0.7669" style="stop-color:#223F81"></stop>
						<stop offset="1" style="stop-color:#253C81"></stop>
					</linearGradient>
					<polygon class="st51" points="447.9,362.7 459.5,362.7 466.5,326      "></polygon>
					
						<linearGradient id="SVGID_50_" gradientUnits="userSpaceOnUse" x1="460.6163" y1="386.2174" x2="470.9305" y2="386.2174" gradientTransform="matrix(1 0 0 -1 0 722)">
						<stop offset="0" style="stop-color:#1F4280"></stop>
						<stop offset="0.7669" style="stop-color:#223F81"></stop>
						<stop offset="1" style="stop-color:#253C81"></stop>
					</linearGradient>
					<polygon class="st52" points="470.9,308.9 460.6,362.7 470.9,362.7      "></polygon>
				</g>
				<g>
					
						<linearGradient id="SVGID_51_" gradientUnits="userSpaceOnUse" x1="434.3041" y1="368.5675" x2="455.9909" y2="368.5675" gradientTransform="matrix(1 0 0 -1 0 722)">
						<stop offset="0" style="stop-color:#1F4280"></stop>
						<stop offset="0.7669" style="stop-color:#223F81"></stop>
						<stop offset="1" style="stop-color:#253C81"></stop>
					</linearGradient>
					<polygon class="st53" points="434.3,362.7 446.7,362.7 456,344.2      "></polygon>
					
						<linearGradient id="SVGID_52_" gradientUnits="userSpaceOnUse" x1="447.9449" y1="377.666" x2="466.4742" y2="377.666" gradientTransform="matrix(1 0 0 -1 0 722)">
						<stop offset="0" style="stop-color:#1F4280"></stop>
						<stop offset="0.7669" style="stop-color:#223F81"></stop>
						<stop offset="1" style="stop-color:#253C81"></stop>
					</linearGradient>
					<polygon class="st54" points="447.9,362.7 459.5,362.7 466.5,326      "></polygon>
					
						<linearGradient id="SVGID_53_" gradientUnits="userSpaceOnUse" x1="460.6163" y1="386.2174" x2="470.9305" y2="386.2174" gradientTransform="matrix(1 0 0 -1 0 722)">
						<stop offset="0" style="stop-color:#1F4280"></stop>
						<stop offset="0.7669" style="stop-color:#223F81"></stop>
						<stop offset="1" style="stop-color:#253C81"></stop>
					</linearGradient>
					<polygon class="st55" points="470.9,308.9 460.6,362.7 470.9,362.7      "></polygon>
				</g>
			</g>
			<g>
				
					<linearGradient id="SVGID_54_" gradientUnits="userSpaceOnUse" x1="477.2621" y1="384.9018" x2="526.4105" y2="384.9018" gradientTransform="matrix(1 0 0 -1 0 722)">
					<stop offset="0" style="stop-color:#1F4280"></stop>
					<stop offset="0.7669" style="stop-color:#223F81"></stop>
					<stop offset="1" style="stop-color:#253C81"></stop>
				</linearGradient>
				<path class="st56" d="M501.1,311.5c2.8,0,4.4,0.1,4.8,0.3c0.4,0.2,2.9,7.1,7.5,20.7c4.6,13.6,7.7,22.4,9.4,26.3h3.3      c0.3,0.7,0.4,1.5,0.4,2.1c0,0.6-0.1,1.1-0.4,1.3c-0.2,0.2-0.7,0.4-1.3,0.4h-15.4c-0.3-0.8-0.5-1.6-0.5-2.3      c0-0.5,0.1-0.9,0.4-1.1c0.3-0.2,0.7-0.3,1.3-0.3h2c-0.5-2.2-1.7-6.4-3.6-12.7h-16.7c-1.7,6.2-2.8,10.4-3.1,12.7h3.4      c0.3,0.7,0.4,1.5,0.4,2.1c0,0.6-0.1,1.1-0.4,1.3c-0.2,0.2-0.7,0.4-1.3,0.4h-13.6c-0.3-0.8-0.4-1.6-0.4-2.3      c0-0.5,0.1-0.9,0.4-1.1c0.3-0.2,0.7-0.3,1.3-0.3h2.1c1.6-4.5,4.3-12.6,8.1-24.4c3.8-11.7,6.1-18.5,7-20.3      C497.1,312.4,498.7,311.5,501.1,311.5z M493.6,341.4h14c-4.5-14.3-6.9-21.5-7.2-21.5C499.9,319.9,497.7,327.1,493.6,341.4z"></path>
				
					<linearGradient id="SVGID_55_" gradientUnits="userSpaceOnUse" x1="527.5045" y1="384.9018" x2="576.6389" y2="384.9018" gradientTransform="matrix(1 0 0 -1 0 722)">
					<stop offset="0" style="stop-color:#1F4280"></stop>
					<stop offset="0.7669" style="stop-color:#223F81"></stop>
					<stop offset="1" style="stop-color:#253C81"></stop>
				</linearGradient>
				<path class="st57" d="M551.3,311.5c2.8,0,4.4,0.1,4.8,0.3c0.4,0.2,2.9,7.1,7.5,20.7c4.6,13.6,7.7,22.4,9.4,26.3h3.3      c0.3,0.7,0.4,1.5,0.4,2.1c0,0.6-0.1,1.1-0.4,1.3c-0.2,0.2-0.7,0.4-1.3,0.4h-15.4c-0.3-0.8-0.5-1.6-0.5-2.3      c0-0.5,0.1-0.9,0.4-1.1c0.3-0.2,0.7-0.3,1.3-0.3h2c-0.5-2.2-1.7-6.4-3.6-12.7h-16.7c-1.7,6.2-2.8,10.4-3.1,12.7h3.4      c0.3,0.7,0.4,1.5,0.4,2.1c0,0.6-0.1,1.1-0.4,1.3c-0.2,0.2-0.7,0.4-1.3,0.4h-13.6c-0.3-0.8-0.4-1.6-0.4-2.3      c0-0.5,0.1-0.9,0.4-1.1c0.3-0.2,0.7-0.3,1.3-0.3h2.1c1.6-4.5,4.3-12.6,8.1-24.4c3.8-11.7,6.1-18.5,7-20.3      C547.4,312.4,549,311.5,551.3,311.5z M543.8,341.4h14c-4.5-14.3-6.9-21.5-7.2-21.5C550.2,319.9,548,327.1,543.8,341.4z"></path>
			</g>
		</g>
	</g>
</g>
</svg>